<svg width="167" height="117" viewBox="0 0 167 117" fill="none" xmlns="http://www.w3.org/2000/svg">
<g id="Caribbean">
<path id="AG" d="M150.958 70.6214L151.103 70.6432L151.193 70.5274L151.371 70.298L151.467 70.2416L151.542 70.1979L151.574 70.1172L151.629 69.9765L151.646 69.9338L151.647 69.888L151.649 69.6964L151.651 69.5112L151.475 69.4551L151.396 69.4302L151.246 69.2572L151.206 69.2113L151.15 69.1888L150.64 68.9857L150.483 68.923L150.366 69.0461L149.914 69.5238L149.831 69.6109L149.848 69.7297L149.88 69.9651L149.885 69.9992L149.898 70.0307L150.044 70.3653L150.099 70.4924L150.236 70.513L150.958 70.6214ZM151.222 66.5981L151.254 66.5394L151.252 66.4725L151.238 65.8886L151.236 65.7957L151.174 65.7267L150.996 65.5305L150.937 65.465L150.849 65.4513L150.613 65.4143L150.442 65.32L150.301 65.2426L150.172 65.3385L150.082 65.4055L149.997 65.469L149.983 65.5745L149.967 65.7015L149.961 65.7502L149.974 65.7977L150.135 66.4001L150.161 66.497L150.247 66.549L150.776 66.8698L150.999 67.0057L151.125 66.7758L151.222 66.5981Z" fill="#FBF5C4" stroke="#998989" stroke-width="0.5"/>
<path id="BB" d="M165.743 96.6785L165.765 96.6632L165.783 96.6437L166.21 96.1775L166.396 95.9736L166.175 95.8083L165.808 95.5349L165.155 94.7564L165.053 94.6339L164.898 94.6757L164.541 94.7726L164.351 94.8239L164.356 95.0202L164.381 96.0311L164.383 96.1006L164.421 96.1592L164.624 96.4777L164.663 96.5403L164.731 96.5709L165.31 96.834L165.441 96.8936L165.559 96.81L165.743 96.6785Z" fill="#FBF5C4" stroke="#998989" stroke-width="0.5"/>
<g id="BS">
<mask id="path-3-outside-1_17_263" maskUnits="userSpaceOnUse" x="38.3613" y="0.2146" width="43" height="44" fill="black">
<rect fill="white" x="38.3613" y="0.2146" width="43" height="44"/>
<path d="M50.7567 8.66693L50.6205 8.72927L50.0574 8.01149L49.6051 7.80378L50.3113 7.29603L50.6182 6.85984L50.6113 5.90668L50.7843 5.38273L50.7267 4.93041L50.8812 4.4688L50.6713 3.94957L50.0805 3.53641L48.9105 1.89547L47.062 1.49619L46.1044 1.48006L46.6305 1.2146L47.1151 1.24693L47.8628 1.40385L48.7582 1.48006L49.3051 1.96238L49.8266 2.60402L50.2997 2.86251L50.4935 3.02634L50.4728 3.21334L50.5513 3.38871L51.1674 3.68876L51.7882 4.17108L51.9705 5.58586L51.1351 6.25518L50.9828 8.29998L50.7567 8.66693ZM42.5482 2.73785L43.3329 2.96408L43.7552 2.93175L44.0067 2.7863L45.1675 2.84631L46.1044 2.62938L46.2452 3.01253L46.2221 3.21334L44.2282 3.40026L42.4005 3.96337L41.399 4.3442L40.9282 4.38801L40.5683 4.18728L39.3613 3.02866L39.6844 3.14403L40.5752 3.79955L41.129 3.67953L41.6436 3.24559L41.7221 2.91787L41.6459 2.76327L41.879 2.24397L42.5482 2.73785ZM54.4905 11.6465L55.5566 12.4497L56.4658 12.7543L57.4489 13.7606L57.8736 14.1183L57.9497 14.4437L57.7836 15.93L57.562 16.8232L57.5943 17.6056L57.3636 17.3725L57.1304 16.8601L56.7474 16.567L56.6182 16.4124L57.3059 16.3778L57.3659 15.57L57.7028 14.933L57.652 14.2683L56.849 13.5367L56.2997 12.8928L55.4528 12.685L54.6705 12.0435L54.2043 11.965L53.6343 12.0781L53.8397 11.695L53.9828 11.1872L54.0866 11.0903L54.4905 11.6465ZM47.399 17.1948L47.3851 18.0533L47.4567 18.6949L47.392 18.9234L46.6905 19.3527L46.5105 19.5927L45.8505 19.8351L45.4513 20.172L45.2505 19.6251L44.8628 19.2881L44.7982 18.7134L44.5028 18.9073L44.0736 18.7896L43.3675 18.3556L42.9221 17.7649L43.5475 17.6633L43.6767 18.0302L44.1705 17.5802L44.0575 17.3425L43.9675 17.3125L43.8059 16.8717L44.549 15.7131L44.7105 14.9653L44.3736 13.7629L44.6898 13.6844L45.5274 14.1067L45.9036 14.5222L45.9152 15.0922L46.2682 15.5307L46.7782 16.5855L47.399 17.1948ZM49.9674 15.0184L49.2359 15.1661L48.7121 15.0207L48.5782 14.903L48.802 14.7068L49.2936 14.543L50.0852 14.5268L50.4313 14.7207L50.4728 14.8061L49.9674 15.0184ZM63.1743 20.7859L63.2181 21.1436L62.7843 21.0721L62.1427 21.2129L61.912 21.2175L62.055 20.9706L62.5004 20.6382L62.5235 20.3221L61.9719 19.8651L61.3328 18.7272L61.0328 18.4572L60.8896 18.0279L60.352 17.5686L60.4627 17.324L60.5735 17.2663L60.9358 17.384L61.7574 19.0226L61.8105 19.1796L63.1743 20.7859ZM47.9574 20.4351L47.969 20.5967L47.3275 21.0421L47.7936 21.3606L48.2321 20.6682L48.5805 21.2313L48.7721 22.2838L48.7398 22.4684L48.7721 22.6253L48.839 22.8261L48.8551 23.117L48.4998 24.0332L47.2213 23.9386L47.1913 23.1654L46.9928 23.0154L46.6951 21.9099L46.2959 21.5545L45.7398 20.6451L46.0628 20.4097L46.4943 20.4882L46.7159 20.3774L47.3136 20.2897L47.6759 20.1651L47.9574 20.4351ZM68.865 21.7161L68.3504 22.48L68.0758 22.4153L68.2304 21.4529L68.5858 21.3006L68.7265 21.3098L68.865 21.7161ZM60.8666 26.0641L60.5966 26.1057L60.1143 25.9188L58.9812 25.0648L58.4551 24.991L58.6282 24.5086L59.0297 24.6771L59.9435 25.4133L60.2874 25.7826L60.8666 26.0641ZM66.2043 29.9577L66.1627 30.1377L65.3458 28.7414L64.3166 28.4021L63.7258 28.0651L63.8481 27.8736L64.2589 27.7905L64.3281 27.3474L64.1527 26.8674L63.6104 25.898L63.3058 25.2402L63.1651 25.0879L63.1235 24.5363L63.7673 25.3926L64.035 26.1519L64.4666 26.895L64.7551 28.1736L65.5789 28.6075L66.1719 29.2261L66.2043 29.9577ZM71.2742 31.1509L71.4219 31.2755L71.0088 31.557L70.0788 31.2109L69.8689 31.2363L69.6842 30.867L69.6127 30.5946L69.6589 30.3431L70.2127 30.537L70.5104 30.8993L71.2742 31.1509ZM70.3073 34.7028L69.8527 34.9128L69.9542 34.5528L70.8243 33.9412L71.3065 33.4034L71.5811 33.2119L71.6781 33.0642L72.0611 32.8657L72.2527 32.5195L72.1996 32.2356L71.8003 31.7671L71.805 31.437L71.9434 31.204L72.6173 31.0955L72.4396 31.4463L72.705 32.4387L71.8096 33.6735L71.0434 34.0566L70.3073 34.7028ZM77.858 33.205L78.2596 33.3042L78.4788 33.2972L79.2196 33.505L79.6603 33.7935L79.7595 33.9112L79.5219 34.1673L78.8411 33.6827L78.2457 33.6204L77.4103 33.6319L77.0757 33.5396L77.2996 33.018L77.858 33.205ZM78.668 39.6095L77.805 39.9487L77.7173 39.5495L78.158 39.2286L78.668 39.6095ZM77.948 41.7835L77.7426 42.289L77.0573 43.2537L75.5273 43.496L73.8427 43.5422L73.7134 43.2791L73.6765 43.0483L73.7988 42.686L73.7873 42.5428L73.7181 42.3975L74.3365 42.2428L74.738 41.7951L75.3773 41.7189L76.1734 42.0351L76.6027 42.0466L77.2373 41.7005L77.7473 40.9504L78.0496 41.0473L77.948 41.7835Z"/>
</mask>
<path d="M50.7567 8.66693L50.6205 8.72927L50.0574 8.01149L49.6051 7.80378L50.3113 7.29603L50.6182 6.85984L50.6113 5.90668L50.7843 5.38273L50.7267 4.93041L50.8812 4.4688L50.6713 3.94957L50.0805 3.53641L48.9105 1.89547L47.062 1.49619L46.1044 1.48006L46.6305 1.2146L47.1151 1.24693L47.8628 1.40385L48.7582 1.48006L49.3051 1.96238L49.8266 2.60402L50.2997 2.86251L50.4935 3.02634L50.4728 3.21334L50.5513 3.38871L51.1674 3.68876L51.7882 4.17108L51.9705 5.58586L51.1351 6.25518L50.9828 8.29998L50.7567 8.66693ZM42.5482 2.73785L43.3329 2.96408L43.7552 2.93175L44.0067 2.7863L45.1675 2.84631L46.1044 2.62938L46.2452 3.01253L46.2221 3.21334L44.2282 3.40026L42.4005 3.96337L41.399 4.3442L40.9282 4.38801L40.5683 4.18728L39.3613 3.02866L39.6844 3.14403L40.5752 3.79955L41.129 3.67953L41.6436 3.24559L41.7221 2.91787L41.6459 2.76327L41.879 2.24397L42.5482 2.73785ZM54.4905 11.6465L55.5566 12.4497L56.4658 12.7543L57.4489 13.7606L57.8736 14.1183L57.9497 14.4437L57.7836 15.93L57.562 16.8232L57.5943 17.6056L57.3636 17.3725L57.1304 16.8601L56.7474 16.567L56.6182 16.4124L57.3059 16.3778L57.3659 15.57L57.7028 14.933L57.652 14.2683L56.849 13.5367L56.2997 12.8928L55.4528 12.685L54.6705 12.0435L54.2043 11.965L53.6343 12.0781L53.8397 11.695L53.9828 11.1872L54.0866 11.0903L54.4905 11.6465ZM47.399 17.1948L47.3851 18.0533L47.4567 18.6949L47.392 18.9234L46.6905 19.3527L46.5105 19.5927L45.8505 19.8351L45.4513 20.172L45.2505 19.6251L44.8628 19.2881L44.7982 18.7134L44.5028 18.9073L44.0736 18.7896L43.3675 18.3556L42.9221 17.7649L43.5475 17.6633L43.6767 18.0302L44.1705 17.5802L44.0575 17.3425L43.9675 17.3125L43.8059 16.8717L44.549 15.7131L44.7105 14.9653L44.3736 13.7629L44.6898 13.6844L45.5274 14.1067L45.9036 14.5222L45.9152 15.0922L46.2682 15.5307L46.7782 16.5855L47.399 17.1948ZM49.9674 15.0184L49.2359 15.1661L48.7121 15.0207L48.5782 14.903L48.802 14.7068L49.2936 14.543L50.0852 14.5268L50.4313 14.7207L50.4728 14.8061L49.9674 15.0184ZM63.1743 20.7859L63.2181 21.1436L62.7843 21.0721L62.1427 21.2129L61.912 21.2175L62.055 20.9706L62.5004 20.6382L62.5235 20.3221L61.9719 19.8651L61.3328 18.7272L61.0328 18.4572L60.8896 18.0279L60.352 17.5686L60.4627 17.324L60.5735 17.2663L60.9358 17.384L61.7574 19.0226L61.8105 19.1796L63.1743 20.7859ZM47.9574 20.4351L47.969 20.5967L47.3275 21.0421L47.7936 21.3606L48.2321 20.6682L48.5805 21.2313L48.7721 22.2838L48.7398 22.4684L48.7721 22.6253L48.839 22.8261L48.8551 23.117L48.4998 24.0332L47.2213 23.9386L47.1913 23.1654L46.9928 23.0154L46.6951 21.9099L46.2959 21.5545L45.7398 20.6451L46.0628 20.4097L46.4943 20.4882L46.7159 20.3774L47.3136 20.2897L47.6759 20.1651L47.9574 20.4351ZM68.865 21.7161L68.3504 22.48L68.0758 22.4153L68.2304 21.4529L68.5858 21.3006L68.7265 21.3098L68.865 21.7161ZM60.8666 26.0641L60.5966 26.1057L60.1143 25.9188L58.9812 25.0648L58.4551 24.991L58.6282 24.5086L59.0297 24.6771L59.9435 25.4133L60.2874 25.7826L60.8666 26.0641ZM66.2043 29.9577L66.1627 30.1377L65.3458 28.7414L64.3166 28.4021L63.7258 28.0651L63.8481 27.8736L64.2589 27.7905L64.3281 27.3474L64.1527 26.8674L63.6104 25.898L63.3058 25.2402L63.1651 25.0879L63.1235 24.5363L63.7673 25.3926L64.035 26.1519L64.4666 26.895L64.7551 28.1736L65.5789 28.6075L66.1719 29.2261L66.2043 29.9577ZM71.2742 31.1509L71.4219 31.2755L71.0088 31.557L70.0788 31.2109L69.8689 31.2363L69.6842 30.867L69.6127 30.5946L69.6589 30.3431L70.2127 30.537L70.5104 30.8993L71.2742 31.1509ZM70.3073 34.7028L69.8527 34.9128L69.9542 34.5528L70.8243 33.9412L71.3065 33.4034L71.5811 33.2119L71.6781 33.0642L72.0611 32.8657L72.2527 32.5195L72.1996 32.2356L71.8003 31.7671L71.805 31.437L71.9434 31.204L72.6173 31.0955L72.4396 31.4463L72.705 32.4387L71.8096 33.6735L71.0434 34.0566L70.3073 34.7028ZM77.858 33.205L78.2596 33.3042L78.4788 33.2972L79.2196 33.505L79.6603 33.7935L79.7595 33.9112L79.5219 34.1673L78.8411 33.6827L78.2457 33.6204L77.4103 33.6319L77.0757 33.5396L77.2996 33.018L77.858 33.205ZM78.668 39.6095L77.805 39.9487L77.7173 39.5495L78.158 39.2286L78.668 39.6095ZM77.948 41.7835L77.7426 42.289L77.0573 43.2537L75.5273 43.496L73.8427 43.5422L73.7134 43.2791L73.6765 43.0483L73.7988 42.686L73.7873 42.5428L73.7181 42.3975L74.3365 42.2428L74.738 41.7951L75.3773 41.7189L76.1734 42.0351L76.6027 42.0466L77.2373 41.7005L77.7473 40.9504L78.0496 41.0473L77.948 41.7835Z" fill="#FBF5C4"/>
<path d="M50.7567 8.66693L50.6205 8.72927L50.0574 8.01149L49.6051 7.80378L50.3113 7.29603L50.6182 6.85984L50.6113 5.90668L50.7843 5.38273L50.7267 4.93041L50.8812 4.4688L50.6713 3.94957L50.0805 3.53641L48.9105 1.89547L47.062 1.49619L46.1044 1.48006L46.6305 1.2146L47.1151 1.24693L47.8628 1.40385L48.7582 1.48006L49.3051 1.96238L49.8266 2.60402L50.2997 2.86251L50.4935 3.02634L50.4728 3.21334L50.5513 3.38871L51.1674 3.68876L51.7882 4.17108L51.9705 5.58586L51.1351 6.25518L50.9828 8.29998L50.7567 8.66693ZM42.5482 2.73785L43.3329 2.96408L43.7552 2.93175L44.0067 2.7863L45.1675 2.84631L46.1044 2.62938L46.2452 3.01253L46.2221 3.21334L44.2282 3.40026L42.4005 3.96337L41.399 4.3442L40.9282 4.38801L40.5683 4.18728L39.3613 3.02866L39.6844 3.14403L40.5752 3.79955L41.129 3.67953L41.6436 3.24559L41.7221 2.91787L41.6459 2.76327L41.879 2.24397L42.5482 2.73785ZM54.4905 11.6465L55.5566 12.4497L56.4658 12.7543L57.4489 13.7606L57.8736 14.1183L57.9497 14.4437L57.7836 15.93L57.562 16.8232L57.5943 17.6056L57.3636 17.3725L57.1304 16.8601L56.7474 16.567L56.6182 16.4124L57.3059 16.3778L57.3659 15.57L57.7028 14.933L57.652 14.2683L56.849 13.5367L56.2997 12.8928L55.4528 12.685L54.6705 12.0435L54.2043 11.965L53.6343 12.0781L53.8397 11.695L53.9828 11.1872L54.0866 11.0903L54.4905 11.6465ZM47.399 17.1948L47.3851 18.0533L47.4567 18.6949L47.392 18.9234L46.6905 19.3527L46.5105 19.5927L45.8505 19.8351L45.4513 20.172L45.2505 19.6251L44.8628 19.2881L44.7982 18.7134L44.5028 18.9073L44.0736 18.7896L43.3675 18.3556L42.9221 17.7649L43.5475 17.6633L43.6767 18.0302L44.1705 17.5802L44.0575 17.3425L43.9675 17.3125L43.8059 16.8717L44.549 15.7131L44.7105 14.9653L44.3736 13.7629L44.6898 13.6844L45.5274 14.1067L45.9036 14.5222L45.9152 15.0922L46.2682 15.5307L46.7782 16.5855L47.399 17.1948ZM49.9674 15.0184L49.2359 15.1661L48.7121 15.0207L48.5782 14.903L48.802 14.7068L49.2936 14.543L50.0852 14.5268L50.4313 14.7207L50.4728 14.8061L49.9674 15.0184ZM63.1743 20.7859L63.2181 21.1436L62.7843 21.0721L62.1427 21.2129L61.912 21.2175L62.055 20.9706L62.5004 20.6382L62.5235 20.3221L61.9719 19.8651L61.3328 18.7272L61.0328 18.4572L60.8896 18.0279L60.352 17.5686L60.4627 17.324L60.5735 17.2663L60.9358 17.384L61.7574 19.0226L61.8105 19.1796L63.1743 20.7859ZM47.9574 20.4351L47.969 20.5967L47.3275 21.0421L47.7936 21.3606L48.2321 20.6682L48.5805 21.2313L48.7721 22.2838L48.7398 22.4684L48.7721 22.6253L48.839 22.8261L48.8551 23.117L48.4998 24.0332L47.2213 23.9386L47.1913 23.1654L46.9928 23.0154L46.6951 21.9099L46.2959 21.5545L45.7398 20.6451L46.0628 20.4097L46.4943 20.4882L46.7159 20.3774L47.3136 20.2897L47.6759 20.1651L47.9574 20.4351ZM68.865 21.7161L68.3504 22.48L68.0758 22.4153L68.2304 21.4529L68.5858 21.3006L68.7265 21.3098L68.865 21.7161ZM60.8666 26.0641L60.5966 26.1057L60.1143 25.9188L58.9812 25.0648L58.4551 24.991L58.6282 24.5086L59.0297 24.6771L59.9435 25.4133L60.2874 25.7826L60.8666 26.0641ZM66.2043 29.9577L66.1627 30.1377L65.3458 28.7414L64.3166 28.4021L63.7258 28.0651L63.8481 27.8736L64.2589 27.7905L64.3281 27.3474L64.1527 26.8674L63.6104 25.898L63.3058 25.2402L63.1651 25.0879L63.1235 24.5363L63.7673 25.3926L64.035 26.1519L64.4666 26.895L64.7551 28.1736L65.5789 28.6075L66.1719 29.2261L66.2043 29.9577ZM71.2742 31.1509L71.4219 31.2755L71.0088 31.557L70.0788 31.2109L69.8689 31.2363L69.6842 30.867L69.6127 30.5946L69.6589 30.3431L70.2127 30.537L70.5104 30.8993L71.2742 31.1509ZM70.3073 34.7028L69.8527 34.9128L69.9542 34.5528L70.8243 33.9412L71.3065 33.4034L71.5811 33.2119L71.6781 33.0642L72.0611 32.8657L72.2527 32.5195L72.1996 32.2356L71.8003 31.7671L71.805 31.437L71.9434 31.204L72.6173 31.0955L72.4396 31.4463L72.705 32.4387L71.8096 33.6735L71.0434 34.0566L70.3073 34.7028ZM77.858 33.205L78.2596 33.3042L78.4788 33.2972L79.2196 33.505L79.6603 33.7935L79.7595 33.9112L79.5219 34.1673L78.8411 33.6827L78.2457 33.6204L77.4103 33.6319L77.0757 33.5396L77.2996 33.018L77.858 33.205ZM78.668 39.6095L77.805 39.9487L77.7173 39.5495L78.158 39.2286L78.668 39.6095ZM77.948 41.7835L77.7426 42.289L77.0573 43.2537L75.5273 43.496L73.8427 43.5422L73.7134 43.2791L73.6765 43.0483L73.7988 42.686L73.7873 42.5428L73.7181 42.3975L74.3365 42.2428L74.738 41.7951L75.3773 41.7189L76.1734 42.0351L76.6027 42.0466L77.2373 41.7005L77.7473 40.9504L78.0496 41.0473L77.948 41.7835Z" stroke="#998989" mask="url(#path-3-outside-1_17_263)"/>
</g>
<g id="CU">
<mask id="path-4-outside-2_17_263" maskUnits="userSpaceOnUse" x="0.116211" y="26.8784" width="72" height="25" fill="black">
<rect fill="white" x="0.116211" y="26.8784" width="72" height="25"/>
<path d="M20.8884 28.0792L22.5845 28.4046L23.9553 28.3124L24.6107 28.1208L24.5507 28.3169L25.153 28.7993L25.3722 28.8316L26.2584 28.587L28.573 28.4946L28.8107 28.6308L29.2191 29.1016L29.8099 29.3924L30.4214 29.614L31.0606 29.6717L31.6976 29.5725L32.2953 29.6209L33.043 30.0779L33.2783 30.131L33.9476 30.0063L33.7514 30.4264L34.8776 31.0126L35.7037 32.1666L36.3037 32.6397L36.9383 33.0644L37.4737 33.3529L38.0737 33.4913L39.8944 33.4359L40.326 33.4706L40.7114 33.6345L41.0783 33.699L41.2906 33.6367L44.8075 35.4277L45.9267 36.3832L46.6098 36.8794L48.089 37.5948L48.6821 37.7518L48.9936 37.6571L48.9336 37.5002L48.4998 37.1033L48.4351 36.9578L48.9913 37.0802L49.9952 37.8879L50.2721 38.1857L50.7728 38.4626L51.2783 38.6611L51.0382 38.9796L50.6275 39.0073L49.8405 38.8758L50.4659 39.395L50.5721 39.7712L50.8628 39.8035L51.2967 39.3904L51.5713 39.0419L52.6767 39.942L53.272 40.3528L53.1197 40.5928L53.0713 40.8306L53.7359 40.609L53.9874 40.6344L54.2298 40.7613L54.4951 41.1467L55.1159 41.2322L55.7413 41.2229L57.0105 41.5414L58.2128 42.19L59.3436 42.3215L60.4835 42.3446L61.0605 42.6862L61.3051 43.1477L61.0281 43.4732L60.8712 43.8124L61.2958 44.2301L60.3704 44.4079L60.239 44.6594L60.2874 44.9294L60.472 45.0771L61.0005 44.9479L61.7666 45.0633L62.9736 45.1648L63.7813 45.0818L65.4243 45.3656L65.9227 45.518L66.8966 46.0511L67.3466 46.4019L68.3135 47.3482L69.1466 47.7198L69.8689 47.8098L70.1204 47.7475L70.3489 47.8513L70.5496 47.9828L70.7481 48.396L70.6373 48.8299L70.2243 49.183L69.9958 49.4392L68.9643 49.4692L67.522 49.5869L66.1282 49.97L65.4474 50.2747L65.1358 50.4755L64.402 50.6624L64.3535 50.5031L64.3674 50.3023L64.1758 49.9307L64.0097 50.2654L63.7374 50.51L63.2781 50.7177L61.5843 50.7316L60.9036 50.45L60.2043 50.2585L57.6566 50.0577L57.0451 50.0738L55.3444 50.2839L53.6344 50.397L52.919 50.5262L52.2105 50.7201L50.8328 50.7132L49.2059 50.9347L47.5744 50.9762L48.6198 49.423L50.8236 47.9252L51.239 47.602L51.5344 47.1889L51.6036 46.8773L51.5067 46.6119L50.9805 46.1411L50.8744 45.7926L50.7175 45.5664L49.9536 45.3703L49.1805 45.2526L48.3659 45.2503L46.6559 45.0887L45.7467 45.0771L44.9759 44.7564L43.6975 43.6162L43.0998 43.2954L42.7929 43.0392L42.5529 42.7439L42.2529 41.0637L41.9991 40.2559L41.6114 39.552L41.0206 39.0188L40.4021 38.8365L38.0298 39.2935L37.4783 39.2243L36.9406 39.0696L33.3591 37.978L31.8822 37.3779L31.2799 37.0802L30.7653 36.6555L30.2322 35.9585L29.6345 35.3354L29.6368 35.5869L29.5445 35.7508L26.5468 35.8246L26.0691 35.6816L25.7622 35.5108L25.5453 35.2592L25.3838 34.7538L25.0976 34.3291L25.0053 34.7814L24.8576 35.1992L24.4561 35.4323L23.9969 35.4715L23.4407 34.9177L21.0107 34.8022L20.7961 34.7076L19.9977 34.1699L19.3169 33.4959L19.993 33.2582L21.3915 32.9467L21.6938 32.739L21.8692 32.4712L21.7422 32.0742L21.463 31.7857L21.1769 31.6173L20.8607 31.5111L20.443 31.465L15.0361 31.3934L14.7246 31.6104L14.24 32.0512L13.28 32.6166L12.6477 33.2028L12.41 33.5052L12.1146 33.7221L11.45 34.0844L10.8823 34.643L10.1946 34.8922L9.81846 34.7399L9.44693 34.7422L9.17692 34.8807L8.89308 34.943L7.50617 35.0099L7.29848 35.1531L7.10003 35.5523L6.87386 36.3301L6.66156 36.5863L5.96696 36.6832L5.30465 36.8956L3.95697 37.634L3.60851 37.7426L3.68467 37.2002L3.61773 36.6716L3.23698 36.6532L2.80313 36.7409L2.44083 36.8886L1.77158 37.2833L1.43238 37.3825L1.11621 37.1817L1.18083 36.9232L3.41234 35.9724L3.66157 35.9008L4.05849 35.9724L4.44621 35.9401L4.74851 35.6724L4.3816 34.4122L4.52234 33.5537L5.03926 32.8889L6.07309 31.8804L6.57156 31.548L11.6692 29.4409L12.1908 29.3324L15.5046 28.9078L16.01 28.7601L17.5469 28.1346L19.1599 27.8784L20.8884 28.0792ZM37.0006 31.5665L37.0122 31.7512L35.8791 31.2388L35.3922 30.7057L35.196 30.5833L35.5145 30.5718L36.7906 31.4465L37.0006 31.5665ZM41.6598 32.3466L42.5483 32.4943L42.8575 32.4043L43.1529 32.3789L43.4644 32.4412L43.9006 33.0205L43.5175 33.0921H43.2129L42.989 32.9882L42.1906 32.9628L41.6644 32.7943L41.376 32.649L41.2352 32.4735L41.6598 32.3466ZM45.5644 34.2068L45.4329 34.3222L45.0821 34.0637L44.5744 33.9506L44.2767 33.5467L43.9906 33.3921L43.9675 33.2444L44.4382 33.1474L44.766 33.1913L45.1306 33.4982L45.3406 34.066L45.5644 34.2068ZM46.5221 35.3054L46.3098 35.3238L45.666 35.0354L45.4744 34.793L45.7006 34.4676L45.749 34.1145L45.8367 34.0914L45.9405 34.5206L46.4321 34.703L46.4621 34.7976L46.7644 35.16L46.5221 35.3054ZM47.886 36.524L47.6205 36.7363L47.3298 36.4294L47.1452 36.397L46.889 36.2747L46.3929 35.9331L46.2729 35.58L46.6859 35.5523L47.2075 35.6146L48.119 35.8154L48.0382 36.2147L47.886 36.524ZM16.1969 39.1596L15.5946 39.5266L14.3092 40.0435L13.6192 40.062L12.9223 39.8682L12.4423 39.4366L12.1677 39.0096L12.1908 38.8042L12.6269 39.1458L13.0031 39.3143L13.3123 39.2012L13.5315 39.0166L12.8254 37.6364L12.8577 37.3455L13.4185 36.5863L14.9438 36.8171L15.2092 36.9509L15.4215 37.431L15.7608 37.8072L16.16 38.8134L16.1969 39.1596Z"/>
</mask>
<path d="M20.8884 28.0792L22.5845 28.4046L23.9553 28.3124L24.6107 28.1208L24.5507 28.3169L25.153 28.7993L25.3722 28.8316L26.2584 28.587L28.573 28.4946L28.8107 28.6308L29.2191 29.1016L29.8099 29.3924L30.4214 29.614L31.0606 29.6717L31.6976 29.5725L32.2953 29.6209L33.043 30.0779L33.2783 30.131L33.9476 30.0063L33.7514 30.4264L34.8776 31.0126L35.7037 32.1666L36.3037 32.6397L36.9383 33.0644L37.4737 33.3529L38.0737 33.4913L39.8944 33.4359L40.326 33.4706L40.7114 33.6345L41.0783 33.699L41.2906 33.6367L44.8075 35.4277L45.9267 36.3832L46.6098 36.8794L48.089 37.5948L48.6821 37.7518L48.9936 37.6571L48.9336 37.5002L48.4998 37.1033L48.4351 36.9578L48.9913 37.0802L49.9952 37.8879L50.2721 38.1857L50.7728 38.4626L51.2783 38.6611L51.0382 38.9796L50.6275 39.0073L49.8405 38.8758L50.4659 39.395L50.5721 39.7712L50.8628 39.8035L51.2967 39.3904L51.5713 39.0419L52.6767 39.942L53.272 40.3528L53.1197 40.5928L53.0713 40.8306L53.7359 40.609L53.9874 40.6344L54.2298 40.7613L54.4951 41.1467L55.1159 41.2322L55.7413 41.2229L57.0105 41.5414L58.2128 42.19L59.3436 42.3215L60.4835 42.3446L61.0605 42.6862L61.3051 43.1477L61.0281 43.4732L60.8712 43.8124L61.2958 44.2301L60.3704 44.4079L60.239 44.6594L60.2874 44.9294L60.472 45.0771L61.0005 44.9479L61.7666 45.0633L62.9736 45.1648L63.7813 45.0818L65.4243 45.3656L65.9227 45.518L66.8966 46.0511L67.3466 46.4019L68.3135 47.3482L69.1466 47.7198L69.8689 47.8098L70.1204 47.7475L70.3489 47.8513L70.5496 47.9828L70.7481 48.396L70.6373 48.8299L70.2243 49.183L69.9958 49.4392L68.9643 49.4692L67.522 49.5869L66.1282 49.97L65.4474 50.2747L65.1358 50.4755L64.402 50.6624L64.3535 50.5031L64.3674 50.3023L64.1758 49.9307L64.0097 50.2654L63.7374 50.51L63.2781 50.7177L61.5843 50.7316L60.9036 50.45L60.2043 50.2585L57.6566 50.0577L57.0451 50.0738L55.3444 50.2839L53.6344 50.397L52.919 50.5262L52.2105 50.7201L50.8328 50.7132L49.2059 50.9347L47.5744 50.9762L48.6198 49.423L50.8236 47.9252L51.239 47.602L51.5344 47.1889L51.6036 46.8773L51.5067 46.6119L50.9805 46.1411L50.8744 45.7926L50.7175 45.5664L49.9536 45.3703L49.1805 45.2526L48.3659 45.2503L46.6559 45.0887L45.7467 45.0771L44.9759 44.7564L43.6975 43.6162L43.0998 43.2954L42.7929 43.0392L42.5529 42.7439L42.2529 41.0637L41.9991 40.2559L41.6114 39.552L41.0206 39.0188L40.4021 38.8365L38.0298 39.2935L37.4783 39.2243L36.9406 39.0696L33.3591 37.978L31.8822 37.3779L31.2799 37.0802L30.7653 36.6555L30.2322 35.9585L29.6345 35.3354L29.6368 35.5869L29.5445 35.7508L26.5468 35.8246L26.0691 35.6816L25.7622 35.5108L25.5453 35.2592L25.3838 34.7538L25.0976 34.3291L25.0053 34.7814L24.8576 35.1992L24.4561 35.4323L23.9969 35.4715L23.4407 34.9177L21.0107 34.8022L20.7961 34.7076L19.9977 34.1699L19.3169 33.4959L19.993 33.2582L21.3915 32.9467L21.6938 32.739L21.8692 32.4712L21.7422 32.0742L21.463 31.7857L21.1769 31.6173L20.8607 31.5111L20.443 31.465L15.0361 31.3934L14.7246 31.6104L14.24 32.0512L13.28 32.6166L12.6477 33.2028L12.41 33.5052L12.1146 33.7221L11.45 34.0844L10.8823 34.643L10.1946 34.8922L9.81846 34.7399L9.44693 34.7422L9.17692 34.8807L8.89308 34.943L7.50617 35.0099L7.29848 35.1531L7.10003 35.5523L6.87386 36.3301L6.66156 36.5863L5.96696 36.6832L5.30465 36.8956L3.95697 37.634L3.60851 37.7426L3.68467 37.2002L3.61773 36.6716L3.23698 36.6532L2.80313 36.7409L2.44083 36.8886L1.77158 37.2833L1.43238 37.3825L1.11621 37.1817L1.18083 36.9232L3.41234 35.9724L3.66157 35.9008L4.05849 35.9724L4.44621 35.9401L4.74851 35.6724L4.3816 34.4122L4.52234 33.5537L5.03926 32.8889L6.07309 31.8804L6.57156 31.548L11.6692 29.4409L12.1908 29.3324L15.5046 28.9078L16.01 28.7601L17.5469 28.1346L19.1599 27.8784L20.8884 28.0792ZM37.0006 31.5665L37.0122 31.7512L35.8791 31.2388L35.3922 30.7057L35.196 30.5833L35.5145 30.5718L36.7906 31.4465L37.0006 31.5665ZM41.6598 32.3466L42.5483 32.4943L42.8575 32.4043L43.1529 32.3789L43.4644 32.4412L43.9006 33.0205L43.5175 33.0921H43.2129L42.989 32.9882L42.1906 32.9628L41.6644 32.7943L41.376 32.649L41.2352 32.4735L41.6598 32.3466ZM45.5644 34.2068L45.4329 34.3222L45.0821 34.0637L44.5744 33.9506L44.2767 33.5467L43.9906 33.3921L43.9675 33.2444L44.4382 33.1474L44.766 33.1913L45.1306 33.4982L45.3406 34.066L45.5644 34.2068ZM46.5221 35.3054L46.3098 35.3238L45.666 35.0354L45.4744 34.793L45.7006 34.4676L45.749 34.1145L45.8367 34.0914L45.9405 34.5206L46.4321 34.703L46.4621 34.7976L46.7644 35.16L46.5221 35.3054ZM47.886 36.524L47.6205 36.7363L47.3298 36.4294L47.1452 36.397L46.889 36.2747L46.3929 35.9331L46.2729 35.58L46.6859 35.5523L47.2075 35.6146L48.119 35.8154L48.0382 36.2147L47.886 36.524ZM16.1969 39.1596L15.5946 39.5266L14.3092 40.0435L13.6192 40.062L12.9223 39.8682L12.4423 39.4366L12.1677 39.0096L12.1908 38.8042L12.6269 39.1458L13.0031 39.3143L13.3123 39.2012L13.5315 39.0166L12.8254 37.6364L12.8577 37.3455L13.4185 36.5863L14.9438 36.8171L15.2092 36.9509L15.4215 37.431L15.7608 37.8072L16.16 38.8134L16.1969 39.1596Z" fill="#FBF5C4"/>
<path d="M20.8884 28.0792L22.5845 28.4046L23.9553 28.3124L24.6107 28.1208L24.5507 28.3169L25.153 28.7993L25.3722 28.8316L26.2584 28.587L28.573 28.4946L28.8107 28.6308L29.2191 29.1016L29.8099 29.3924L30.4214 29.614L31.0606 29.6717L31.6976 29.5725L32.2953 29.6209L33.043 30.0779L33.2783 30.131L33.9476 30.0063L33.7514 30.4264L34.8776 31.0126L35.7037 32.1666L36.3037 32.6397L36.9383 33.0644L37.4737 33.3529L38.0737 33.4913L39.8944 33.4359L40.326 33.4706L40.7114 33.6345L41.0783 33.699L41.2906 33.6367L44.8075 35.4277L45.9267 36.3832L46.6098 36.8794L48.089 37.5948L48.6821 37.7518L48.9936 37.6571L48.9336 37.5002L48.4998 37.1033L48.4351 36.9578L48.9913 37.0802L49.9952 37.8879L50.2721 38.1857L50.7728 38.4626L51.2783 38.6611L51.0382 38.9796L50.6275 39.0073L49.8405 38.8758L50.4659 39.395L50.5721 39.7712L50.8628 39.8035L51.2967 39.3904L51.5713 39.0419L52.6767 39.942L53.272 40.3528L53.1197 40.5928L53.0713 40.8306L53.7359 40.609L53.9874 40.6344L54.2298 40.7613L54.4951 41.1467L55.1159 41.2322L55.7413 41.2229L57.0105 41.5414L58.2128 42.19L59.3436 42.3215L60.4835 42.3446L61.0605 42.6862L61.3051 43.1477L61.0281 43.4732L60.8712 43.8124L61.2958 44.2301L60.3704 44.4079L60.239 44.6594L60.2874 44.9294L60.472 45.0771L61.0005 44.9479L61.7666 45.0633L62.9736 45.1648L63.7813 45.0818L65.4243 45.3656L65.9227 45.518L66.8966 46.0511L67.3466 46.4019L68.3135 47.3482L69.1466 47.7198L69.8689 47.8098L70.1204 47.7475L70.3489 47.8513L70.5496 47.9828L70.7481 48.396L70.6373 48.8299L70.2243 49.183L69.9958 49.4392L68.9643 49.4692L67.522 49.5869L66.1282 49.97L65.4474 50.2747L65.1358 50.4755L64.402 50.6624L64.3535 50.5031L64.3674 50.3023L64.1758 49.9307L64.0097 50.2654L63.7374 50.51L63.2781 50.7177L61.5843 50.7316L60.9036 50.45L60.2043 50.2585L57.6566 50.0577L57.0451 50.0738L55.3444 50.2839L53.6344 50.397L52.919 50.5262L52.2105 50.7201L50.8328 50.7132L49.2059 50.9347L47.5744 50.9762L48.6198 49.423L50.8236 47.9252L51.239 47.602L51.5344 47.1889L51.6036 46.8773L51.5067 46.6119L50.9805 46.1411L50.8744 45.7926L50.7175 45.5664L49.9536 45.3703L49.1805 45.2526L48.3659 45.2503L46.6559 45.0887L45.7467 45.0771L44.9759 44.7564L43.6975 43.6162L43.0998 43.2954L42.7929 43.0392L42.5529 42.7439L42.2529 41.0637L41.9991 40.2559L41.6114 39.552L41.0206 39.0188L40.4021 38.8365L38.0298 39.2935L37.4783 39.2243L36.9406 39.0696L33.3591 37.978L31.8822 37.3779L31.2799 37.0802L30.7653 36.6555L30.2322 35.9585L29.6345 35.3354L29.6368 35.5869L29.5445 35.7508L26.5468 35.8246L26.0691 35.6816L25.7622 35.5108L25.5453 35.2592L25.3838 34.7538L25.0976 34.3291L25.0053 34.7814L24.8576 35.1992L24.4561 35.4323L23.9969 35.4715L23.4407 34.9177L21.0107 34.8022L20.7961 34.7076L19.9977 34.1699L19.3169 33.4959L19.993 33.2582L21.3915 32.9467L21.6938 32.739L21.8692 32.4712L21.7422 32.0742L21.463 31.7857L21.1769 31.6173L20.8607 31.5111L20.443 31.465L15.0361 31.3934L14.7246 31.6104L14.24 32.0512L13.28 32.6166L12.6477 33.2028L12.41 33.5052L12.1146 33.7221L11.45 34.0844L10.8823 34.643L10.1946 34.8922L9.81846 34.7399L9.44693 34.7422L9.17692 34.8807L8.89308 34.943L7.50617 35.0099L7.29848 35.1531L7.10003 35.5523L6.87386 36.3301L6.66156 36.5863L5.96696 36.6832L5.30465 36.8956L3.95697 37.634L3.60851 37.7426L3.68467 37.2002L3.61773 36.6716L3.23698 36.6532L2.80313 36.7409L2.44083 36.8886L1.77158 37.2833L1.43238 37.3825L1.11621 37.1817L1.18083 36.9232L3.41234 35.9724L3.66157 35.9008L4.05849 35.9724L4.44621 35.9401L4.74851 35.6724L4.3816 34.4122L4.52234 33.5537L5.03926 32.8889L6.07309 31.8804L6.57156 31.548L11.6692 29.4409L12.1908 29.3324L15.5046 28.9078L16.01 28.7601L17.5469 28.1346L19.1599 27.8784L20.8884 28.0792ZM37.0006 31.5665L37.0122 31.7512L35.8791 31.2388L35.3922 30.7057L35.196 30.5833L35.5145 30.5718L36.7906 31.4465L37.0006 31.5665ZM41.6598 32.3466L42.5483 32.4943L42.8575 32.4043L43.1529 32.3789L43.4644 32.4412L43.9006 33.0205L43.5175 33.0921H43.2129L42.989 32.9882L42.1906 32.9628L41.6644 32.7943L41.376 32.649L41.2352 32.4735L41.6598 32.3466ZM45.5644 34.2068L45.4329 34.3222L45.0821 34.0637L44.5744 33.9506L44.2767 33.5467L43.9906 33.3921L43.9675 33.2444L44.4382 33.1474L44.766 33.1913L45.1306 33.4982L45.3406 34.066L45.5644 34.2068ZM46.5221 35.3054L46.3098 35.3238L45.666 35.0354L45.4744 34.793L45.7006 34.4676L45.749 34.1145L45.8367 34.0914L45.9405 34.5206L46.4321 34.703L46.4621 34.7976L46.7644 35.16L46.5221 35.3054ZM47.886 36.524L47.6205 36.7363L47.3298 36.4294L47.1452 36.397L46.889 36.2747L46.3929 35.9331L46.2729 35.58L46.6859 35.5523L47.2075 35.6146L48.119 35.8154L48.0382 36.2147L47.886 36.524ZM16.1969 39.1596L15.5946 39.5266L14.3092 40.0435L13.6192 40.062L12.9223 39.8682L12.4423 39.4366L12.1677 39.0096L12.1908 38.8042L12.6269 39.1458L13.0031 39.3143L13.3123 39.2012L13.5315 39.0166L12.8254 37.6364L12.8577 37.3455L13.4185 36.5863L14.9438 36.8171L15.2092 36.9509L15.4215 37.431L15.7608 37.8072L16.16 38.8134L16.1969 39.1596Z" stroke="#998989" mask="url(#path-4-outside-2_17_263)"/>
</g>
<path id="DM" d="M154.074 82.3327L154.223 82.297L154.259 82.1478L154.458 81.3192L154.469 81.2702L154.461 81.2204L154.293 80.1957L154.283 80.1382L154.249 80.0907L153.97 79.7007L153.925 79.6373L153.851 79.6109L152.958 79.2901L152.728 79.2074L152.64 79.4358L152.564 79.6343L152.554 79.6608L152.55 79.6888L152.476 80.2105L152.465 80.2883L152.501 80.3585L152.911 81.1687L153.165 82.2901L153.221 82.537L153.467 82.4781L154.074 82.3327Z" fill="#FBF5C4" stroke="#998989" stroke-width="0.5"/>
<g id="DO">
<mask id="path-6-outside-3_17_263" maskUnits="userSpaceOnUse" x="83.5964" y="49.5745" width="26" height="18" fill="black">
<rect fill="white" x="83.5964" y="49.5745" width="26" height="18"/>
<path d="M86.1011 63.3419L86.1287 62.2249L86.3018 61.7702L86.1426 61.2925L85.4249 60.7847L84.9864 60.1293L84.5964 59.55L84.6841 59.4669L85.4641 59.4415L85.7387 59.2269L86.2625 58.6338L86.3664 58.156L86.3249 57.7937L85.9834 57.3621L85.8495 56.9051L86.2695 56.5081L86.821 55.9266L86.8972 55.7027L86.8857 55.4811L86.2418 54.8695L86.198 54.6041L86.498 53.9394L86.468 53.4986L86.1703 52.1207L86.0295 51.9154L86.3156 51.7999L86.5049 51.3892L86.7541 51.0222L87.0864 50.826L87.4649 50.7014L88.2149 50.7129L89.2533 51.0314L89.5487 51.0268L90.5456 50.736L91.3718 50.5745L92.1517 50.7591L92.468 51.0083L93.1095 51.403L93.4326 51.5207L94.4479 51.5138L94.7271 51.553L95.5787 52.2039L96.2964 52.4647L96.7141 52.4761L97.4618 52.2246L97.8333 52.2315L98.2579 52.7924L98.341 53.5886L98.6963 54.3133L99.241 54.7772L101.925 54.5833L102.522 54.9641L102.319 55.278L101.939 55.4465L100.663 55.3726L100.106 55.4096L99.9933 55.7234L99.9909 56.0143L100.736 56.0835L101.468 56.2289L102.216 56.4643L102.973 56.6236L103.826 56.7274L104.669 56.8959L106.072 57.4659L107.62 58.7584L108.036 59.0538L108.31 59.4577L108.179 59.9585L107.625 60.7755L107.311 61.0363L106.854 61.1979L106.54 61.5302L106.238 62.1003L106.053 62.1487L105.836 62.1256L105.465 61.8025L105.199 61.3064L104.449 60.8402L103.561 60.9002L102.25 60.6255L101.459 60.757L100.665 60.7894L99.8548 60.6486L99.0379 60.6001L98.2233 60.7755L97.434 61.0732L97.1433 61.2648L96.6356 61.7287L96.3656 61.9018L94.4433 62.1349L93.8917 61.7933L93.3771 61.3271L92.6387 61.2648L91.5656 61.6248L90.8964 61.7564L90.6241 61.9087L90.5433 62.0864L90.541 62.7373L90.391 63.1319L89.3456 64.6228L88.7572 65.6753L88.5149 65.9984L88.2333 66.0699L87.7187 65.4653L87.391 65.2483L86.9849 65.1375L86.8118 64.8167L86.8188 64.3597L86.7126 63.9166L86.461 63.5681L86.1011 63.3419Z"/>
</mask>
<path d="M86.1011 63.3419L86.1287 62.2249L86.3018 61.7702L86.1426 61.2925L85.4249 60.7847L84.9864 60.1293L84.5964 59.55L84.6841 59.4669L85.4641 59.4415L85.7387 59.2269L86.2625 58.6338L86.3664 58.156L86.3249 57.7937L85.9834 57.3621L85.8495 56.9051L86.2695 56.5081L86.821 55.9266L86.8972 55.7027L86.8857 55.4811L86.2418 54.8695L86.198 54.6041L86.498 53.9394L86.468 53.4986L86.1703 52.1207L86.0295 51.9154L86.3156 51.7999L86.5049 51.3892L86.7541 51.0222L87.0864 50.826L87.4649 50.7014L88.2149 50.7129L89.2533 51.0314L89.5487 51.0268L90.5456 50.736L91.3718 50.5745L92.1517 50.7591L92.468 51.0083L93.1095 51.403L93.4326 51.5207L94.4479 51.5138L94.7271 51.553L95.5787 52.2039L96.2964 52.4647L96.7141 52.4761L97.4618 52.2246L97.8333 52.2315L98.2579 52.7924L98.341 53.5886L98.6963 54.3133L99.241 54.7772L101.925 54.5833L102.522 54.9641L102.319 55.278L101.939 55.4465L100.663 55.3726L100.106 55.4096L99.9933 55.7234L99.9909 56.0143L100.736 56.0835L101.468 56.2289L102.216 56.4643L102.973 56.6236L103.826 56.7274L104.669 56.8959L106.072 57.4659L107.62 58.7584L108.036 59.0538L108.31 59.4577L108.179 59.9585L107.625 60.7755L107.311 61.0363L106.854 61.1979L106.54 61.5302L106.238 62.1003L106.053 62.1487L105.836 62.1256L105.465 61.8025L105.199 61.3064L104.449 60.8402L103.561 60.9002L102.25 60.6255L101.459 60.757L100.665 60.7894L99.8548 60.6486L99.0379 60.6001L98.2233 60.7755L97.434 61.0732L97.1433 61.2648L96.6356 61.7287L96.3656 61.9018L94.4433 62.1349L93.8917 61.7933L93.3771 61.3271L92.6387 61.2648L91.5656 61.6248L90.8964 61.7564L90.6241 61.9087L90.5433 62.0864L90.541 62.7373L90.391 63.1319L89.3456 64.6228L88.7572 65.6753L88.5149 65.9984L88.2333 66.0699L87.7187 65.4653L87.391 65.2483L86.9849 65.1375L86.8118 64.8167L86.8188 64.3597L86.7126 63.9166L86.461 63.5681L86.1011 63.3419Z" fill="#FBF5C4"/>
<path d="M86.1011 63.3419L86.1287 62.2249L86.3018 61.7702L86.1426 61.2925L85.4249 60.7847L84.9864 60.1293L84.5964 59.55L84.6841 59.4669L85.4641 59.4415L85.7387 59.2269L86.2625 58.6338L86.3664 58.156L86.3249 57.7937L85.9834 57.3621L85.8495 56.9051L86.2695 56.5081L86.821 55.9266L86.8972 55.7027L86.8857 55.4811L86.2418 54.8695L86.198 54.6041L86.498 53.9394L86.468 53.4986L86.1703 52.1207L86.0295 51.9154L86.3156 51.7999L86.5049 51.3892L86.7541 51.0222L87.0864 50.826L87.4649 50.7014L88.2149 50.7129L89.2533 51.0314L89.5487 51.0268L90.5456 50.736L91.3718 50.5745L92.1517 50.7591L92.468 51.0083L93.1095 51.403L93.4326 51.5207L94.4479 51.5138L94.7271 51.553L95.5787 52.2039L96.2964 52.4647L96.7141 52.4761L97.4618 52.2246L97.8333 52.2315L98.2579 52.7924L98.341 53.5886L98.6963 54.3133L99.241 54.7772L101.925 54.5833L102.522 54.9641L102.319 55.278L101.939 55.4465L100.663 55.3726L100.106 55.4096L99.9933 55.7234L99.9909 56.0143L100.736 56.0835L101.468 56.2289L102.216 56.4643L102.973 56.6236L103.826 56.7274L104.669 56.8959L106.072 57.4659L107.62 58.7584L108.036 59.0538L108.31 59.4577L108.179 59.9585L107.625 60.7755L107.311 61.0363L106.854 61.1979L106.54 61.5302L106.238 62.1003L106.053 62.1487L105.836 62.1256L105.465 61.8025L105.199 61.3064L104.449 60.8402L103.561 60.9002L102.25 60.6255L101.459 60.757L100.665 60.7894L99.8548 60.6486L99.0379 60.6001L98.2233 60.7755L97.434 61.0732L97.1433 61.2648L96.6356 61.7287L96.3656 61.9018L94.4433 62.1349L93.8917 61.7933L93.3771 61.3271L92.6387 61.2648L91.5656 61.6248L90.8964 61.7564L90.6241 61.9087L90.5433 62.0864L90.541 62.7373L90.391 63.1319L89.3456 64.6228L88.7572 65.6753L88.5149 65.9984L88.2333 66.0699L87.7187 65.4653L87.391 65.2483L86.9849 65.1375L86.8118 64.8167L86.8188 64.3597L86.7126 63.9166L86.461 63.5681L86.1011 63.3419Z" stroke="#998989" mask="url(#path-6-outside-3_17_263)"/>
</g>
<path id="GD" d="M151.222 103.777L151.271 103.775L151.316 103.753L151.888 103.479L152.012 103.419L152.028 103.282L152.158 102.17L152.183 101.954L151.972 101.899L151.626 101.809L151.491 101.774L151.39 101.871L151.037 102.21L151.002 102.244L150.982 102.288L150.756 102.793L150.739 102.832L150.735 102.873L150.704 103.222L150.572 103.409L150.273 103.833L150.791 103.803L151.222 103.777Z" fill="#FBF5C4" stroke="#998989" stroke-width="0.5"/>
<g id="HT">
<mask id="path-8-outside-4_17_263" maskUnits="userSpaceOnUse" x="67.5535" y="48.3442" width="20" height="17" fill="black">
<rect fill="white" x="67.5535" y="48.3442" width="20" height="17"/>
<path d="M80.2995 49.7297L80.5626 49.889L80.4633 50.0828L79.8103 49.9628L79.1342 49.7435L78.9126 49.7966L78.7765 49.7689L78.3819 49.5589L78.728 49.3973L79.0857 49.3442L79.478 49.3558L80.2995 49.7297ZM86.0295 51.9153L86.1725 52.1184L86.4703 53.4962L86.5003 53.9371L86.2003 54.6018L86.2441 54.8648L86.888 55.4788L86.8995 55.7003L86.8233 55.9242L86.2741 56.5058L85.8518 56.9028L85.9856 57.3598L86.3272 57.7936L86.3711 58.156L86.2672 58.6337L85.7434 59.2268L85.4687 59.4392L84.6888 59.4646L84.601 59.5499L84.9888 60.1292L85.4272 60.7847L86.1449 61.2924L86.3041 61.7702L86.1311 62.2226L86.1011 63.3396L85.5518 62.7972L84.9495 62.3448L84.5872 62.1695L84.2111 62.0563L81.338 62.1141L81.0149 62.1926L80.7657 62.3379L80.498 62.4095L79.7087 62.5456L78.9241 62.5756L77.0896 62.211L76.3627 62.0218L75.6311 61.9017L74.7911 61.941L73.9557 62.0518L73.2865 62.3148L72.7857 62.7788L72.6911 63.2103L72.3958 63.3211L71.7196 62.6356L71.0965 62.1487L70.388 61.7817L68.9365 61.2578L68.6711 60.9393L68.5535 60.5539L69.1396 59.3676L69.8065 59.1507L70.1734 59.1092L70.9973 59.2545L71.8027 59.5246L72.5365 59.6999L73.6742 59.7692L74.2927 60.06L78.6611 60.5124L79.4895 60.6554L79.8126 60.607L80.0942 60.4293L80.3295 60.1085L80.5996 59.8684L81.8942 59.8154L82.1664 59.7069L82.3557 59.3722L82.3511 59.0237L81.5895 58.5575L80.3988 57.5328L79.3511 56.3258L79.8034 55.9173L79.6303 55.1718L79.8011 54.4817L80.0503 53.8055L79.0118 53.2262L77.7842 52.6469L76.0834 52.4646L75.5595 52.3192L75.2873 51.8853L75.5319 51.3037L76.0834 50.9806L76.7157 50.7821L77.3642 50.6436L78.9265 50.4774L80.4772 50.6644L81.818 51.2644L83.1795 51.7353L84.8988 51.8922L85.6718 52.063L86.0295 51.9153ZM79.3903 58.329L79.2773 58.8091L77.6203 58.239L76.2772 57.519L76.335 57.1289L77.0204 57.0389L77.678 57.279L78.6496 57.759L79.3903 58.329Z"/>
</mask>
<path d="M80.2995 49.7297L80.5626 49.889L80.4633 50.0828L79.8103 49.9628L79.1342 49.7435L78.9126 49.7966L78.7765 49.7689L78.3819 49.5589L78.728 49.3973L79.0857 49.3442L79.478 49.3558L80.2995 49.7297ZM86.0295 51.9153L86.1725 52.1184L86.4703 53.4962L86.5003 53.9371L86.2003 54.6018L86.2441 54.8648L86.888 55.4788L86.8995 55.7003L86.8233 55.9242L86.2741 56.5058L85.8518 56.9028L85.9856 57.3598L86.3272 57.7936L86.3711 58.156L86.2672 58.6337L85.7434 59.2268L85.4687 59.4392L84.6888 59.4646L84.601 59.5499L84.9888 60.1292L85.4272 60.7847L86.1449 61.2924L86.3041 61.7702L86.1311 62.2226L86.1011 63.3396L85.5518 62.7972L84.9495 62.3448L84.5872 62.1695L84.2111 62.0563L81.338 62.1141L81.0149 62.1926L80.7657 62.3379L80.498 62.4095L79.7087 62.5456L78.9241 62.5756L77.0896 62.211L76.3627 62.0218L75.6311 61.9017L74.7911 61.941L73.9557 62.0518L73.2865 62.3148L72.7857 62.7788L72.6911 63.2103L72.3958 63.3211L71.7196 62.6356L71.0965 62.1487L70.388 61.7817L68.9365 61.2578L68.6711 60.9393L68.5535 60.5539L69.1396 59.3676L69.8065 59.1507L70.1734 59.1092L70.9973 59.2545L71.8027 59.5246L72.5365 59.6999L73.6742 59.7692L74.2927 60.06L78.6611 60.5124L79.4895 60.6554L79.8126 60.607L80.0942 60.4293L80.3295 60.1085L80.5996 59.8684L81.8942 59.8154L82.1664 59.7069L82.3557 59.3722L82.3511 59.0237L81.5895 58.5575L80.3988 57.5328L79.3511 56.3258L79.8034 55.9173L79.6303 55.1718L79.8011 54.4817L80.0503 53.8055L79.0118 53.2262L77.7842 52.6469L76.0834 52.4646L75.5595 52.3192L75.2873 51.8853L75.5319 51.3037L76.0834 50.9806L76.7157 50.7821L77.3642 50.6436L78.9265 50.4774L80.4772 50.6644L81.818 51.2644L83.1795 51.7353L84.8988 51.8922L85.6718 52.063L86.0295 51.9153ZM79.3903 58.329L79.2773 58.8091L77.6203 58.239L76.2772 57.519L76.335 57.1289L77.0204 57.0389L77.678 57.279L78.6496 57.759L79.3903 58.329Z" fill="#FBF5C4"/>
<path d="M80.2995 49.7297L80.5626 49.889L80.4633 50.0828L79.8103 49.9628L79.1342 49.7435L78.9126 49.7966L78.7765 49.7689L78.3819 49.5589L78.728 49.3973L79.0857 49.3442L79.478 49.3558L80.2995 49.7297ZM86.0295 51.9153L86.1725 52.1184L86.4703 53.4962L86.5003 53.9371L86.2003 54.6018L86.2441 54.8648L86.888 55.4788L86.8995 55.7003L86.8233 55.9242L86.2741 56.5058L85.8518 56.9028L85.9856 57.3598L86.3272 57.7936L86.3711 58.156L86.2672 58.6337L85.7434 59.2268L85.4687 59.4392L84.6888 59.4646L84.601 59.5499L84.9888 60.1292L85.4272 60.7847L86.1449 61.2924L86.3041 61.7702L86.1311 62.2226L86.1011 63.3396L85.5518 62.7972L84.9495 62.3448L84.5872 62.1695L84.2111 62.0563L81.338 62.1141L81.0149 62.1926L80.7657 62.3379L80.498 62.4095L79.7087 62.5456L78.9241 62.5756L77.0896 62.211L76.3627 62.0218L75.6311 61.9017L74.7911 61.941L73.9557 62.0518L73.2865 62.3148L72.7857 62.7788L72.6911 63.2103L72.3958 63.3211L71.7196 62.6356L71.0965 62.1487L70.388 61.7817L68.9365 61.2578L68.6711 60.9393L68.5535 60.5539L69.1396 59.3676L69.8065 59.1507L70.1734 59.1092L70.9973 59.2545L71.8027 59.5246L72.5365 59.6999L73.6742 59.7692L74.2927 60.06L78.6611 60.5124L79.4895 60.6554L79.8126 60.607L80.0942 60.4293L80.3295 60.1085L80.5996 59.8684L81.8942 59.8154L82.1664 59.7069L82.3557 59.3722L82.3511 59.0237L81.5895 58.5575L80.3988 57.5328L79.3511 56.3258L79.8034 55.9173L79.6303 55.1718L79.8011 54.4817L80.0503 53.8055L79.0118 53.2262L77.7842 52.6469L76.0834 52.4646L75.5595 52.3192L75.2873 51.8853L75.5319 51.3037L76.0834 50.9806L76.7157 50.7821L77.3642 50.6436L78.9265 50.4774L80.4772 50.6644L81.818 51.2644L83.1795 51.7353L84.8988 51.8922L85.6718 52.063L86.0295 51.9153ZM79.3903 58.329L79.2773 58.8091L77.6203 58.239L76.2772 57.519L76.335 57.1289L77.0204 57.0389L77.678 57.279L78.6496 57.759L79.3903 58.329Z" stroke="#998989" mask="url(#path-8-outside-4_17_263)"/>
</g>
<path id="JM" d="M50.5968 60.2665L50.5735 60.2593L50.5492 60.2568L49.9493 60.1945L49.9369 60.1932L49.9244 60.1932L49.3111 60.1909L46.5953 59.817L46.5267 59.8076L46.4631 59.8348L46.1169 59.9825L46.0956 59.9915L46.0764 60.0044L45.7844 60.1991L45.106 60.3401L44.3462 60.3179L44.2697 60.3157L44.2051 60.3566L43.972 60.5043L43.9439 60.5221L43.9214 60.5467L43.446 61.066L43.3995 61.1168L43.3856 61.1842L43.2979 61.6089L43.2776 61.707L43.3308 61.792L43.6239 62.2605L43.6867 62.3609L43.8042 62.3759L45.1785 62.5514L45.2714 62.6091L45.7666 63.4151L45.8121 63.4891L45.8935 63.5189L46.3689 63.6934L46.5231 63.8509L47.0377 64.58L47.0963 64.6631L47.1962 64.6817L47.8285 64.7994L47.8489 64.8031L47.8695 64.8035L49.182 64.8285L49.7724 64.9643L50.2482 65.2926L50.7231 65.7203L51.005 65.974L51.1271 65.615L51.4067 64.7932L51.5849 64.6279L51.6728 64.5876L51.7811 64.7385L51.8503 64.835L51.9688 64.8423L52.5641 64.8793L52.6912 64.8872L52.7723 64.7891L53.0815 64.4152L53.0941 64.4L53.1042 64.3829L53.2116 64.2009L53.6461 64.2569L54.2718 64.3375L54.5087 64.4877L54.5323 64.5027L54.5586 64.5121L55.2117 64.7452L55.2545 64.7605L55.2999 64.7597L56.006 64.7482L56.0176 64.748L56.029 64.7467L56.7698 64.666L56.8022 64.6624L56.8326 64.6507L57.4188 64.4245L57.649 64.3357L57.5632 64.1043L57.4201 63.7189L57.4116 63.6958L57.3987 63.6749L56.6418 62.4447L56.5928 62.3651L56.5037 62.3372L54.2526 61.6309L53.6925 61.3336L52.9646 60.7634L52.9215 60.7296L52.8682 60.717L52.5382 60.6385L52.5122 60.6323L52.4854 60.6318L52.1514 60.6251L51.3689 60.5036L50.5968 60.2665Z" fill="#FBF5C4" stroke="#998989" stroke-width="0.5"/>
<path id="KN" d="M145.559 68.7574L145.509 68.6409L145.447 68.4932L145.424 68.4375L145.377 68.3987L145.182 68.2352L144.96 67.8528L144.929 67.8006L144.878 67.768L144.355 67.4334L144.233 67.3558L144.105 67.4219L143.895 67.5304L143.829 67.5646L143.792 67.6296L143.711 67.7726L143.683 67.8233L143.68 67.8815L143.673 68.0038L143.671 68.0324L143.676 68.0607L143.685 68.1138L143.705 68.227L143.804 68.2858L144.214 68.5304L144.247 68.55L144.284 68.5588L144.668 68.6502L144.909 68.989L145.047 69.1829L145.109 69.1431L145.068 69.4529L145.048 69.6035L145.173 69.6906L145.45 69.8844L145.565 69.9651L145.694 69.9085L146.019 69.7654L146.175 69.6966L146.168 69.5259L146.154 69.2005L146.149 69.0859L146.059 69.0149L145.796 68.8072L145.722 68.7488L145.628 68.7537L145.559 68.7574Z" fill="#FBF5C4" stroke="#998989" stroke-width="0.5"/>
<path id="LC" d="M156.741 91.6939L156.767 91.6444L156.77 91.5884L156.825 90.3352L156.827 90.2984L156.818 90.2626L156.679 89.7179L156.598 89.3991L156.313 89.5626L156.075 89.6987L156.035 89.7216L156.006 89.7572L155.669 90.168L155.662 90.1765L155.656 90.1856L155.224 90.818L155.195 90.8611L155.185 90.9125L155.123 91.2425L155.115 91.2833L155.121 91.3244L155.199 91.8714L155.216 91.9877L155.316 92.0491L156.025 92.483L156.252 92.6223L156.376 92.3862L156.741 91.6939Z" fill="#FBF5C4" stroke="#998989" stroke-width="0.5"/>
<path id="TT" d="M157.465 109.253L157.491 109.248L157.515 109.238L158.872 108.679L158.977 108.636L159.014 108.528L159.15 108.124L159.267 107.777L158.901 107.795L158.661 107.806L158.628 107.808L158.596 107.818L157.65 108.123L157.612 108.135L157.58 108.158L156.961 108.609L156.878 108.669L156.861 108.771L156.82 109.032L156.764 109.381L157.112 109.317L157.465 109.253ZM155.845 116.081L155.971 116.037L156.005 115.908L156.062 115.687L156.069 115.662L156.07 115.636L156.098 115.074L156.275 114.717L156.344 114.579L156.251 114.455L155.973 114.086L155.86 113.567L155.965 113.127L155.975 113.082L155.969 113.037L155.888 112.41L156.063 112.19L156.071 112.179L156.078 112.168L156.591 111.353L156.847 110.946L156.366 110.97L155.326 111.024L155.295 111.025L155.265 111.034L154.678 111.214L153.44 111.256L153.402 111.258L153.367 111.27L152.777 111.474L151.98 111.579L151.938 111.585L151.899 111.604L151.514 111.801L151.235 111.942L151.435 112.183L151.537 112.305L151.579 112.356L151.642 112.38L152.23 112.6L152.428 112.722L152.51 112.866L152.581 113.208L152.379 114.808L152.346 114.825L151.722 114.883L151.591 114.895L151.527 115.011L151.377 115.281L149.86 116.047L150.003 116.518L150.843 116.418L151.947 116.548L151.965 116.55L151.984 116.55L154.721 116.462L154.759 116.461L154.795 116.448L155.845 116.081Z" fill="#FBF5C4" stroke="#998989" stroke-width="0.5"/>
<path id="VC" d="M154.83 96.1915L154.869 96.1704L154.898 96.1372L155.159 95.8418L155.211 95.7825L155.22 95.7039L155.287 95.1015L155.291 95.0597L155.282 95.0186L155.185 94.5916L155.138 94.3834L154.925 94.3975L154.646 94.416L154.584 94.4201L154.532 94.4521L154.26 94.6182L154.235 94.6332L154.215 94.6535L153.926 94.9373L153.863 94.9996L153.853 95.0878L153.795 95.6047L153.781 95.7296L153.873 95.8153L154.349 96.2585L154.48 96.3811L154.549 96.344L154.383 96.4747L154.316 96.5272L154.147 96.636L154.126 96.6491L154.109 96.6659L154.055 96.7167L154.01 96.7599L153.798 96.6943V97.0334V97.0819V97.146L153.468 97.3734H154.106L154.233 97.5646L154.449 97.3485L154.498 97.3L154.924 96.8734H154.834L154.96 96.7507L154.778 96.5998L154.772 96.585L154.661 96.2828L154.83 96.1915ZM153.683 99.2796L153.786 99.2759L153.856 99.2012L153.893 99.162L153.932 99.1207L153.948 99.0705L153.956 99.063L153.969 99.0458L154.004 98.9997L154.07 98.9112L154.049 98.8025L154.038 98.7425L154.026 98.6807L153.986 98.6319L153.965 98.6065L153.885 98.5083L153.759 98.5146L153.713 98.517L153.643 98.5205L153.585 98.5599L153.527 98.5992L153.422 98.6704L153.419 98.7735L153.371 98.8349L153.355 98.8557L153.151 99.1177L153.459 99.2411L153.517 99.2642L153.566 99.2838L153.619 99.2819L153.683 99.2796Z" fill="#FBF5C4" stroke="#998989" stroke-width="0.5"/>
</g>
</svg>
