<svg width="100" height="77" viewBox="0 0 100 77" fill="none" xmlns="http://www.w3.org/2000/svg">
<g id="CentralAmerica">
<path id="BZ" d="M27.2898 1.50656L27.4272 1.20059L27.0947 1.15633L26.5917 1.08935L26.5672 1.0861L26.5427 1.08767L25.9657 1.12465L25.9126 1.12806L25.8654 1.15287L25.4661 1.36283L25.3832 1.40644L25.3494 1.49381L24.9515 2.52129L23.948 3.98123L23.9418 3.99023L23.9365 3.99972L23.5564 4.67149L23.2951 4.86565L23.1782 4.90912L22.99 4.8L22.9894 4.79971L22.293 4.39382L22.1922 4.33503L22.0823 4.37463L21.5446 4.56854L21.4392 4.60658L21.3974 4.71066L21.2105 5.17686L21.1919 5.22307L21.1925 5.27285L21.1994 5.85516L21.1373 7.48756L21.1373 7.48763L21.0658 9.38463L21.0658 9.38473L21.0127 10.7763L21.0127 10.7765L20.9435 12.632L20.9434 12.6321L20.8719 14.5266L20.8719 14.5268L20.7727 17.1046L20.7727 17.1048L20.7104 18.7689L20.707 18.8587L20.7616 18.9301L20.7916 18.9693L20.8768 19.0807L21.0162 19.0661L21.7685 18.9875L22.89 19.0578L22.8998 19.0584L22.9097 19.0582L23.1889 19.0536L23.5077 19.0484L23.4266 18.7401L23.3357 18.3945L23.4912 18.0937L24.6239 16.6234L25.4121 16.3614L25.4923 16.3347L25.5399 16.2649L26.182 15.3219L26.5324 14.9716L26.5535 14.9504L26.5691 14.9249L27.1598 13.9555L27.186 13.9125L27.1936 13.8627L27.5281 11.6424L27.5335 11.6072L27.5287 11.5718L27.3239 10.0517L27.3543 9.28803L27.4818 8.79887L27.8835 7.98636L27.9491 7.85361L27.8643 7.73226L27.4961 7.20596L27.7808 6.36815L27.7883 6.34587L27.7916 6.32256L27.8776 5.7114L28.5828 3.87311L28.5945 3.84268L28.598 3.81027L28.6741 3.10179L28.6801 3.0464L28.6619 2.99372L28.3712 2.14902L28.3154 1.98682L28.1439 1.98055L27.3847 1.9528L27.3519 1.9516L27.32 1.95889L27.0688 2.01616L27.0618 2.01415L27.2898 1.50656ZM29.3896 5.34462L29.4822 5.30702L29.5234 5.21591L30.1834 3.755L30.2431 3.62279L30.158 3.50533L30.091 3.413L30.0179 3.31205L29.8932 3.30977L29.6394 3.30512L29.457 3.30178L29.3981 3.47447L29.0428 4.51764L29.0354 4.53914L29.0321 4.56161L29.0032 4.75689L28.7791 5.10121L28.3446 5.76884L29.0827 5.46922L29.3896 5.34462ZM29.6528 9.56633L30.136 8.65117L30.4693 8.28962L30.5162 8.23876L30.5303 8.17103L30.5926 7.87106L30.6286 7.69774L30.4771 7.60621L30.2325 7.45844L29.9043 7.26016L29.8553 7.64051L29.8237 7.88608L29.7 8.06827L29.4431 8.29151L29.3882 8.33926L29.3674 8.40905L29.1598 9.10838L29.145 9.15792L29.1512 9.20923L29.1835 9.47927L29.2786 10.2749L29.6528 9.56633Z" fill="#FBF5C4" stroke="#998989" stroke-width="0.5"/>
<g id="CR">
<mask id="path-2-outside-1_17_262" maskUnits="userSpaceOnUse" x="41.5254" y="48.9353" width="24" height="22" fill="black">
<rect fill="white" x="41.5254" y="48.9353" width="24" height="22"/>
<path d="M57.1999 51.7194L57.3615 51.9802L57.5484 52.3886L57.6315 52.9149L58.4553 54.6758L59.113 55.659L60.553 57.45L61.1738 57.78L62.2238 59.2178L62.5861 59.4555L62.7937 59.8802L63.883 60.2287L64.1853 60.4872L64.1484 60.6072L64.0353 60.7342L63.876 60.8611L63.6637 60.9488L63.1514 60.6856L62.6461 60.3879L62.3691 60.5241L62.2653 60.9119L62.0784 61.1104L61.8453 61.1888L61.7484 61.3181L61.7276 62.6244L61.7461 63.8545L62.1268 63.8822L62.7637 64.3091L63.036 64.5607L63.1214 64.7938L63.043 64.9069L62.5768 65.1746L62.1222 65.5139L61.896 65.9363L62.293 66.6217L62.3783 67.0856L62.3645 67.5725L62.2538 67.8057L61.3745 68.3619L61.183 68.558L61.2061 68.6988L61.693 69.0842L61.9214 69.4558L62.113 69.9036L62.1407 70.2936L61.6999 69.5712L61.0907 68.8812L60.5599 68.4565L60.5184 67.4664L60.3061 66.9287L59.5076 66.4325L58.8245 66.084L58.3168 66.1555L58.6284 66.7255L59.4291 67.4572L59.4822 67.7364L59.4707 68.1126L58.9191 68.0549L58.4299 67.9026L57.8369 67.8541L57.4422 67.6302L56.6045 66.7555L57.1999 66.0124L57.3846 65.5231L57.3684 64.5076L57.2322 64.0161L56.5861 63.2683L55.5592 62.4443L54.1192 61.7727L53.443 61.2304L51.7561 60.8149L51.1146 60.5403L50.6138 60.0302L50.54 59.6632L50.7177 59.0978L50.2515 58.38L48.2438 56.9653L47.12 56.446L46.88 56.139L46.7023 56.0444L46.8731 57.0207L47.3646 57.6092L48.6454 58.1562L48.9984 58.4769L49.1415 58.8924L48.3984 59.6863L48.0177 59.8872L47.9069 60.321L47.6646 60.4526L47.4084 60.2033L46.37 58.957L44.36 58.3593L43.9954 57.9923L43.2477 56.8522L42.9039 55.8136L43.0262 55.1189L43.8523 54.0365L44.1108 53.5657L44.0577 53.2749L44.0831 52.8479L43.7762 52.5502L43.0123 52.1601L42.5254 51.8486L42.6592 51.6939L43.5339 51.2739L43.5892 50.8954L43.5846 50.7708L43.7277 50.7431L43.8546 50.6439L43.9331 50.5377L44.1708 50.173L44.3808 49.9676L44.6231 49.9353L44.9162 50.0853L46.0192 50.48L47.2469 50.9161L48.9938 51.5347L49.7184 51.1377L50.3415 50.8354L50.7753 50.8792L51.7146 51.2324L52.28 51.3454L52.6261 51.3085L53.2261 51.8278L53.5538 52.2179L53.6092 52.4764L53.7915 52.6171L54.26 52.6471L55.4046 52.9102L56.1038 52.8595L56.7407 52.5802L57.0915 52.2456L57.1999 51.7194Z"/>
</mask>
<path d="M57.1999 51.7194L57.3615 51.9802L57.5484 52.3886L57.6315 52.9149L58.4553 54.6758L59.113 55.659L60.553 57.45L61.1738 57.78L62.2238 59.2178L62.5861 59.4555L62.7937 59.8802L63.883 60.2287L64.1853 60.4872L64.1484 60.6072L64.0353 60.7342L63.876 60.8611L63.6637 60.9488L63.1514 60.6856L62.6461 60.3879L62.3691 60.5241L62.2653 60.9119L62.0784 61.1104L61.8453 61.1888L61.7484 61.3181L61.7276 62.6244L61.7461 63.8545L62.1268 63.8822L62.7637 64.3091L63.036 64.5607L63.1214 64.7938L63.043 64.9069L62.5768 65.1746L62.1222 65.5139L61.896 65.9363L62.293 66.6217L62.3783 67.0856L62.3645 67.5725L62.2538 67.8057L61.3745 68.3619L61.183 68.558L61.2061 68.6988L61.693 69.0842L61.9214 69.4558L62.113 69.9036L62.1407 70.2936L61.6999 69.5712L61.0907 68.8812L60.5599 68.4565L60.5184 67.4664L60.3061 66.9287L59.5076 66.4325L58.8245 66.084L58.3168 66.1555L58.6284 66.7255L59.4291 67.4572L59.4822 67.7364L59.4707 68.1126L58.9191 68.0549L58.4299 67.9026L57.8369 67.8541L57.4422 67.6302L56.6045 66.7555L57.1999 66.0124L57.3846 65.5231L57.3684 64.5076L57.2322 64.0161L56.5861 63.2683L55.5592 62.4443L54.1192 61.7727L53.443 61.2304L51.7561 60.8149L51.1146 60.5403L50.6138 60.0302L50.54 59.6632L50.7177 59.0978L50.2515 58.38L48.2438 56.9653L47.12 56.446L46.88 56.139L46.7023 56.0444L46.8731 57.0207L47.3646 57.6092L48.6454 58.1562L48.9984 58.4769L49.1415 58.8924L48.3984 59.6863L48.0177 59.8872L47.9069 60.321L47.6646 60.4526L47.4084 60.2033L46.37 58.957L44.36 58.3593L43.9954 57.9923L43.2477 56.8522L42.9039 55.8136L43.0262 55.1189L43.8523 54.0365L44.1108 53.5657L44.0577 53.2749L44.0831 52.8479L43.7762 52.5502L43.0123 52.1601L42.5254 51.8486L42.6592 51.6939L43.5339 51.2739L43.5892 50.8954L43.5846 50.7708L43.7277 50.7431L43.8546 50.6439L43.9331 50.5377L44.1708 50.173L44.3808 49.9676L44.6231 49.9353L44.9162 50.0853L46.0192 50.48L47.2469 50.9161L48.9938 51.5347L49.7184 51.1377L50.3415 50.8354L50.7753 50.8792L51.7146 51.2324L52.28 51.3454L52.6261 51.3085L53.2261 51.8278L53.5538 52.2179L53.6092 52.4764L53.7915 52.6171L54.26 52.6471L55.4046 52.9102L56.1038 52.8595L56.7407 52.5802L57.0915 52.2456L57.1999 51.7194Z" fill="#FBF5C4"/>
<path d="M57.1999 51.7194L57.3615 51.9802L57.5484 52.3886L57.6315 52.9149L58.4553 54.6758L59.113 55.659L60.553 57.45L61.1738 57.78L62.2238 59.2178L62.5861 59.4555L62.7937 59.8802L63.883 60.2287L64.1853 60.4872L64.1484 60.6072L64.0353 60.7342L63.876 60.8611L63.6637 60.9488L63.1514 60.6856L62.6461 60.3879L62.3691 60.5241L62.2653 60.9119L62.0784 61.1104L61.8453 61.1888L61.7484 61.3181L61.7276 62.6244L61.7461 63.8545L62.1268 63.8822L62.7637 64.3091L63.036 64.5607L63.1214 64.7938L63.043 64.9069L62.5768 65.1746L62.1222 65.5139L61.896 65.9363L62.293 66.6217L62.3783 67.0856L62.3645 67.5725L62.2538 67.8057L61.3745 68.3619L61.183 68.558L61.2061 68.6988L61.693 69.0842L61.9214 69.4558L62.113 69.9036L62.1407 70.2936L61.6999 69.5712L61.0907 68.8812L60.5599 68.4565L60.5184 67.4664L60.3061 66.9287L59.5076 66.4325L58.8245 66.084L58.3168 66.1555L58.6284 66.7255L59.4291 67.4572L59.4822 67.7364L59.4707 68.1126L58.9191 68.0549L58.4299 67.9026L57.8369 67.8541L57.4422 67.6302L56.6045 66.7555L57.1999 66.0124L57.3846 65.5231L57.3684 64.5076L57.2322 64.0161L56.5861 63.2683L55.5592 62.4443L54.1192 61.7727L53.443 61.2304L51.7561 60.8149L51.1146 60.5403L50.6138 60.0302L50.54 59.6632L50.7177 59.0978L50.2515 58.38L48.2438 56.9653L47.12 56.446L46.88 56.139L46.7023 56.0444L46.8731 57.0207L47.3646 57.6092L48.6454 58.1562L48.9984 58.4769L49.1415 58.8924L48.3984 59.6863L48.0177 59.8872L47.9069 60.321L47.6646 60.4526L47.4084 60.2033L46.37 58.957L44.36 58.3593L43.9954 57.9923L43.2477 56.8522L42.9039 55.8136L43.0262 55.1189L43.8523 54.0365L44.1108 53.5657L44.0577 53.2749L44.0831 52.8479L43.7762 52.5502L43.0123 52.1601L42.5254 51.8486L42.6592 51.6939L43.5339 51.2739L43.5892 50.8954L43.5846 50.7708L43.7277 50.7431L43.8546 50.6439L43.9331 50.5377L44.1708 50.173L44.3808 49.9676L44.6231 49.9353L44.9162 50.0853L46.0192 50.48L47.2469 50.9161L48.9938 51.5347L49.7184 51.1377L50.3415 50.8354L50.7753 50.8792L51.7146 51.2324L52.28 51.3454L52.6261 51.3085L53.2261 51.8278L53.5538 52.2179L53.6092 52.4764L53.7915 52.6171L54.26 52.6471L55.4046 52.9102L56.1038 52.8595L56.7407 52.5802L57.0915 52.2456L57.1999 51.7194Z" stroke="#998989" mask="url(#path-2-outside-1_17_262)"/>
</g>
<g id="GT">
<mask id="path-3-outside-2_17_262" maskUnits="userSpaceOnUse" x="0.547974" y="4.84668" width="28" height="30" fill="black">
<rect fill="white" x="0.547974" y="4.84668" width="28" height="30"/>
<path d="M21.454 5.85823L21.3917 7.49685L21.3201 9.39395L21.2671 10.7856L21.1955 12.6412L21.124 14.536L21.0248 17.114L20.9625 18.7757L20.9925 18.8149L21.7655 18.7342L22.9078 18.808L23.1871 18.8035L23.5355 18.9465L23.8055 18.9904L24.387 19.3642L25.0678 19.6482L25.504 19.0758L25.2755 18.7319L25.1024 18.5565L25.1301 18.4019L27.4978 19.8835L27.2186 20.112L26.6163 20.6382L25.5224 21.5406L24.544 22.3461L23.6001 23.0754L22.7532 23.7332L22.6517 23.7978L21.5763 24.2686L21.3963 24.4833L21.1655 25.411L21.0594 25.6418L21.2555 26.1565L21.4494 26.9505L21.3871 27.3682L20.644 27.8782L20.3025 28.3375L20.1525 28.6352L20.0186 28.5591L19.7878 28.536L19.2571 28.6514L18.9986 28.6768L18.7863 28.8083L18.7632 29.0945L18.9063 29.5584L18.9571 29.7962L18.8071 29.9069L18.1517 30.1861L17.8932 30.4608L17.6463 30.8855L17.3602 31.0655L17.0602 31.0332L16.8479 31.0955L16.3933 31.4163L15.7102 32.0348L15.3456 32.4941L15.3363 32.8357L15.4079 33.145L12.9202 32.0556L12.094 31.8686L8.60024 31.8917L7.10255 31.4625L5.39718 30.6362L4.24102 29.8839L1.54797 27.7767L1.71643 27.6059L1.8595 27.2135L2.03489 26.8074L1.9264 26.3388L1.86179 25.9603L2.06257 25.4065L2.04412 24.9933L2.13641 24.7371L2.4318 24.571L2.58642 24.2548L1.74643 23.1654L1.74872 22.9162L1.8595 22.6092L2.53793 21.4437L3.34796 20.0567L4.23869 18.5242L4.77639 17.601L6.7356 17.5987L8.03254 17.5964H9.6802L11.4687 17.5941H12.6433L13.1279 17.5825L13.0448 16.9825L13.1094 16.3178L13.3217 15.7154V15.45L12.971 15.1223L12.2948 14.9331L11.9164 14.6446L11.914 14.2799L11.7502 13.8391L11.4202 13.3198L10.7394 12.7889L9.7033 12.2443L8.82176 11.515L8.09484 10.5987L7.48101 10.0102L7.00561 9.76323L6.89483 9.63398L8.28178 9.64321L9.59252 9.65476L9.60175 8.33922L9.60869 7.17145L9.61791 5.84668L11.9948 5.849L14.8356 5.85133L17.7802 5.85591L20.0925 5.85823H21.454Z"/>
</mask>
<path d="M21.454 5.85823L21.3917 7.49685L21.3201 9.39395L21.2671 10.7856L21.1955 12.6412L21.124 14.536L21.0248 17.114L20.9625 18.7757L20.9925 18.8149L21.7655 18.7342L22.9078 18.808L23.1871 18.8035L23.5355 18.9465L23.8055 18.9904L24.387 19.3642L25.0678 19.6482L25.504 19.0758L25.2755 18.7319L25.1024 18.5565L25.1301 18.4019L27.4978 19.8835L27.2186 20.112L26.6163 20.6382L25.5224 21.5406L24.544 22.3461L23.6001 23.0754L22.7532 23.7332L22.6517 23.7978L21.5763 24.2686L21.3963 24.4833L21.1655 25.411L21.0594 25.6418L21.2555 26.1565L21.4494 26.9505L21.3871 27.3682L20.644 27.8782L20.3025 28.3375L20.1525 28.6352L20.0186 28.5591L19.7878 28.536L19.2571 28.6514L18.9986 28.6768L18.7863 28.8083L18.7632 29.0945L18.9063 29.5584L18.9571 29.7962L18.8071 29.9069L18.1517 30.1861L17.8932 30.4608L17.6463 30.8855L17.3602 31.0655L17.0602 31.0332L16.8479 31.0955L16.3933 31.4163L15.7102 32.0348L15.3456 32.4941L15.3363 32.8357L15.4079 33.145L12.9202 32.0556L12.094 31.8686L8.60024 31.8917L7.10255 31.4625L5.39718 30.6362L4.24102 29.8839L1.54797 27.7767L1.71643 27.6059L1.8595 27.2135L2.03489 26.8074L1.9264 26.3388L1.86179 25.9603L2.06257 25.4065L2.04412 24.9933L2.13641 24.7371L2.4318 24.571L2.58642 24.2548L1.74643 23.1654L1.74872 22.9162L1.8595 22.6092L2.53793 21.4437L3.34796 20.0567L4.23869 18.5242L4.77639 17.601L6.7356 17.5987L8.03254 17.5964H9.6802L11.4687 17.5941H12.6433L13.1279 17.5825L13.0448 16.9825L13.1094 16.3178L13.3217 15.7154V15.45L12.971 15.1223L12.2948 14.9331L11.9164 14.6446L11.914 14.2799L11.7502 13.8391L11.4202 13.3198L10.7394 12.7889L9.7033 12.2443L8.82176 11.515L8.09484 10.5987L7.48101 10.0102L7.00561 9.76323L6.89483 9.63398L8.28178 9.64321L9.59252 9.65476L9.60175 8.33922L9.60869 7.17145L9.61791 5.84668L11.9948 5.849L14.8356 5.85133L17.7802 5.85591L20.0925 5.85823H21.454Z" fill="#FBF5C4"/>
<path d="M21.454 5.85823L21.3917 7.49685L21.3201 9.39395L21.2671 10.7856L21.1955 12.6412L21.124 14.536L21.0248 17.114L20.9625 18.7757L20.9925 18.8149L21.7655 18.7342L22.9078 18.808L23.1871 18.8035L23.5355 18.9465L23.8055 18.9904L24.387 19.3642L25.0678 19.6482L25.504 19.0758L25.2755 18.7319L25.1024 18.5565L25.1301 18.4019L27.4978 19.8835L27.2186 20.112L26.6163 20.6382L25.5224 21.5406L24.544 22.3461L23.6001 23.0754L22.7532 23.7332L22.6517 23.7978L21.5763 24.2686L21.3963 24.4833L21.1655 25.411L21.0594 25.6418L21.2555 26.1565L21.4494 26.9505L21.3871 27.3682L20.644 27.8782L20.3025 28.3375L20.1525 28.6352L20.0186 28.5591L19.7878 28.536L19.2571 28.6514L18.9986 28.6768L18.7863 28.8083L18.7632 29.0945L18.9063 29.5584L18.9571 29.7962L18.8071 29.9069L18.1517 30.1861L17.8932 30.4608L17.6463 30.8855L17.3602 31.0655L17.0602 31.0332L16.8479 31.0955L16.3933 31.4163L15.7102 32.0348L15.3456 32.4941L15.3363 32.8357L15.4079 33.145L12.9202 32.0556L12.094 31.8686L8.60024 31.8917L7.10255 31.4625L5.39718 30.6362L4.24102 29.8839L1.54797 27.7767L1.71643 27.6059L1.8595 27.2135L2.03489 26.8074L1.9264 26.3388L1.86179 25.9603L2.06257 25.4065L2.04412 24.9933L2.13641 24.7371L2.4318 24.571L2.58642 24.2548L1.74643 23.1654L1.74872 22.9162L1.8595 22.6092L2.53793 21.4437L3.34796 20.0567L4.23869 18.5242L4.77639 17.601L6.7356 17.5987L8.03254 17.5964H9.6802L11.4687 17.5941H12.6433L13.1279 17.5825L13.0448 16.9825L13.1094 16.3178L13.3217 15.7154V15.45L12.971 15.1223L12.2948 14.9331L11.9164 14.6446L11.914 14.2799L11.7502 13.8391L11.4202 13.3198L10.7394 12.7889L9.7033 12.2443L8.82176 11.515L8.09484 10.5987L7.48101 10.0102L7.00561 9.76323L6.89483 9.63398L8.28178 9.64321L9.59252 9.65476L9.60175 8.33922L9.60869 7.17145L9.61791 5.84668L11.9948 5.849L14.8356 5.85133L17.7802 5.85591L20.0925 5.85823H21.454Z" stroke="#998989" mask="url(#path-3-outside-2_17_262)"/>
</g>
<g id="HN">
<mask id="path-4-outside-3_17_262" maskUnits="userSpaceOnUse" x="19.1594" y="13.6216" width="43" height="26" fill="black">
<rect fill="white" x="19.1594" y="13.6216" width="43" height="26"/>
<path d="M42.7655 14.9747L42.2716 15.3624L42.1816 15.187L42.4193 14.827L42.717 14.6216L43.0055 14.6424L42.9362 14.797L42.7655 14.9747ZM39.2093 15.5332L38.1709 16.0571L37.8455 16.0479L38.3209 15.644L39.0893 15.2978L39.7401 15.127L40.2732 15.2009L39.2093 15.5332ZM60.3384 24.7949L58.67 24.6957L57.883 24.9012L57.5392 25.365L57.2438 25.5727L56.9969 25.5243L56.4961 25.7066L55.7415 26.1174L55.0631 26.2721L54.4561 26.1728L54.2808 26.2721L54.2323 26.4082L54.14 26.5398L53.9046 26.609L53.6346 26.5721L53.3323 26.4267L53.1731 26.489L53.1546 26.7567L52.9908 26.8283L52.6815 26.7013L52.3331 26.7983L51.9454 27.1191L51.4008 27.186L50.6993 27.0013L50.157 26.6528L49.7716 26.1405L49.31 26.0112L48.5024 26.3921L48.1654 26.8375L48.0916 27.1098L48.17 27.3568L48.0223 27.5206L47.6462 27.6037L47.36 27.9061L47.1662 28.4276L47.127 28.8315L47.2446 29.1154L47.0577 29.3231L46.5662 29.457L45.987 29.907L45.3178 30.6732L44.6531 31.2064L43.9908 31.5087L43.6724 31.8457L43.6954 32.2149L43.6539 32.3304L43.527 32.3742L43.3124 32.425L42.0362 31.6218L41.6693 31.061L41.3532 31.1464L40.9516 31.4303L40.3862 32.0603L39.7816 32.9189L39.4886 33.0158L37.977 32.8866L37.1786 32.9627L37.0147 33.0758L36.9409 33.3897L36.987 33.8098L37.2063 35.3191L37.3286 35.94L37.2086 36.1316L36.8024 36.1616L36.2739 36.2493L35.9855 36.5331L35.9163 36.8262L35.8886 37.2347L35.7224 37.6571L35.3971 37.9594L35.074 38.0679L33.2717 38.1487L33.304 37.4517L32.7848 37.1678L32.4894 36.5862L32.2309 36.1938L32.3163 35.9584L32.2909 35.6792L31.5571 35.4622L30.8717 35.6307L30.4771 35.5199L30.1863 35.3722L30.6871 35.0284L30.7217 34.8183L30.5601 34.6683L30.3963 34.5668L30.4447 34.1767L30.5463 33.7152L30.8278 32.6373L30.724 32.4481L30.2648 32.1227L29.6832 32.0903L29.0417 32.1919L28.7325 32.0257L28.4625 31.6542L28.0056 31.4765L27.1956 31.7719L26.3371 32.2173L26.074 32.3788L25.8571 32.3581L25.7602 32.0234L25.7163 31.6287L25.6633 31.5318L25.2063 31.391L24.6733 31.2895L24.401 31.181L24.1448 30.9133L23.5056 30.5648L23.3602 30.3063L22.5063 29.7155L22.3333 29.4224L22.1371 29.2078L21.7263 28.9354L21.4056 29L20.3233 28.6608L20.1594 28.6308L20.3094 28.3331L20.651 27.8738L21.394 27.3614L21.4564 26.946L21.2625 26.152L21.0664 25.6374L21.1725 25.4066L21.4056 24.4788L21.5856 24.2642L22.6609 23.7933L22.7602 23.7287L23.6094 23.071L24.5509 22.3416L25.5294 21.5362L26.6233 20.6338L27.2256 20.1053L27.5048 19.8768L28.1348 20.0637L28.6309 19.6367L28.9171 19.4936L29.5886 18.9835L29.7963 18.8728L30.9178 18.6628L31.4601 18.6674L31.9355 19.1867L32.3117 19.4705L33.0201 19.2282L33.6132 19.1751L36.0663 19.6575L37.0401 19.4452L38.8286 19.399L39.6339 19.519L40.7693 18.8382L41.4985 18.6997L42.3547 18.3812L42.2416 18.0535L42.0362 17.9058L43.3424 18.0488L45.2878 18.7413L47.36 18.6166L48.1077 18.2427L48.59 18.1366L50.7131 18.8474L51.2716 19.3944L51.7077 19.4475L52.0469 19.3228L52.1392 19.2098L51.7215 19.0898L51.53 18.919L53.2031 19.2559L56.3507 21.8339L56.4154 22.0439L55.07 21.2823L54.3592 21.34L54.1723 21.4623L54.2138 21.8777L54.2785 22.0716L54.5831 22.0947L54.8092 21.9816L55.3654 22.1177L55.7346 22.3947L56.18 22.8194L56.4477 23.2787L56.7361 23.2856L57.02 23.0086L57.5554 22.974L57.9015 23.2832L58.1484 23.2648L57.8046 22.7847L56.9946 22.307L57.1861 22.2862L58.9815 23.1424L59.4892 24.218L59.9115 24.4603L60.3384 24.7949Z"/>
</mask>
<path d="M42.7655 14.9747L42.2716 15.3624L42.1816 15.187L42.4193 14.827L42.717 14.6216L43.0055 14.6424L42.9362 14.797L42.7655 14.9747ZM39.2093 15.5332L38.1709 16.0571L37.8455 16.0479L38.3209 15.644L39.0893 15.2978L39.7401 15.127L40.2732 15.2009L39.2093 15.5332ZM60.3384 24.7949L58.67 24.6957L57.883 24.9012L57.5392 25.365L57.2438 25.5727L56.9969 25.5243L56.4961 25.7066L55.7415 26.1174L55.0631 26.2721L54.4561 26.1728L54.2808 26.2721L54.2323 26.4082L54.14 26.5398L53.9046 26.609L53.6346 26.5721L53.3323 26.4267L53.1731 26.489L53.1546 26.7567L52.9908 26.8283L52.6815 26.7013L52.3331 26.7983L51.9454 27.1191L51.4008 27.186L50.6993 27.0013L50.157 26.6528L49.7716 26.1405L49.31 26.0112L48.5024 26.3921L48.1654 26.8375L48.0916 27.1098L48.17 27.3568L48.0223 27.5206L47.6462 27.6037L47.36 27.9061L47.1662 28.4276L47.127 28.8315L47.2446 29.1154L47.0577 29.3231L46.5662 29.457L45.987 29.907L45.3178 30.6732L44.6531 31.2064L43.9908 31.5087L43.6724 31.8457L43.6954 32.2149L43.6539 32.3304L43.527 32.3742L43.3124 32.425L42.0362 31.6218L41.6693 31.061L41.3532 31.1464L40.9516 31.4303L40.3862 32.0603L39.7816 32.9189L39.4886 33.0158L37.977 32.8866L37.1786 32.9627L37.0147 33.0758L36.9409 33.3897L36.987 33.8098L37.2063 35.3191L37.3286 35.94L37.2086 36.1316L36.8024 36.1616L36.2739 36.2493L35.9855 36.5331L35.9163 36.8262L35.8886 37.2347L35.7224 37.6571L35.3971 37.9594L35.074 38.0679L33.2717 38.1487L33.304 37.4517L32.7848 37.1678L32.4894 36.5862L32.2309 36.1938L32.3163 35.9584L32.2909 35.6792L31.5571 35.4622L30.8717 35.6307L30.4771 35.5199L30.1863 35.3722L30.6871 35.0284L30.7217 34.8183L30.5601 34.6683L30.3963 34.5668L30.4447 34.1767L30.5463 33.7152L30.8278 32.6373L30.724 32.4481L30.2648 32.1227L29.6832 32.0903L29.0417 32.1919L28.7325 32.0257L28.4625 31.6542L28.0056 31.4765L27.1956 31.7719L26.3371 32.2173L26.074 32.3788L25.8571 32.3581L25.7602 32.0234L25.7163 31.6287L25.6633 31.5318L25.2063 31.391L24.6733 31.2895L24.401 31.181L24.1448 30.9133L23.5056 30.5648L23.3602 30.3063L22.5063 29.7155L22.3333 29.4224L22.1371 29.2078L21.7263 28.9354L21.4056 29L20.3233 28.6608L20.1594 28.6308L20.3094 28.3331L20.651 27.8738L21.394 27.3614L21.4564 26.946L21.2625 26.152L21.0664 25.6374L21.1725 25.4066L21.4056 24.4788L21.5856 24.2642L22.6609 23.7933L22.7602 23.7287L23.6094 23.071L24.5509 22.3416L25.5294 21.5362L26.6233 20.6338L27.2256 20.1053L27.5048 19.8768L28.1348 20.0637L28.6309 19.6367L28.9171 19.4936L29.5886 18.9835L29.7963 18.8728L30.9178 18.6628L31.4601 18.6674L31.9355 19.1867L32.3117 19.4705L33.0201 19.2282L33.6132 19.1751L36.0663 19.6575L37.0401 19.4452L38.8286 19.399L39.6339 19.519L40.7693 18.8382L41.4985 18.6997L42.3547 18.3812L42.2416 18.0535L42.0362 17.9058L43.3424 18.0488L45.2878 18.7413L47.36 18.6166L48.1077 18.2427L48.59 18.1366L50.7131 18.8474L51.2716 19.3944L51.7077 19.4475L52.0469 19.3228L52.1392 19.2098L51.7215 19.0898L51.53 18.919L53.2031 19.2559L56.3507 21.8339L56.4154 22.0439L55.07 21.2823L54.3592 21.34L54.1723 21.4623L54.2138 21.8777L54.2785 22.0716L54.5831 22.0947L54.8092 21.9816L55.3654 22.1177L55.7346 22.3947L56.18 22.8194L56.4477 23.2787L56.7361 23.2856L57.02 23.0086L57.5554 22.974L57.9015 23.2832L58.1484 23.2648L57.8046 22.7847L56.9946 22.307L57.1861 22.2862L58.9815 23.1424L59.4892 24.218L59.9115 24.4603L60.3384 24.7949Z" fill="#FBF5C4"/>
<path d="M42.7655 14.9747L42.2716 15.3624L42.1816 15.187L42.4193 14.827L42.717 14.6216L43.0055 14.6424L42.9362 14.797L42.7655 14.9747ZM39.2093 15.5332L38.1709 16.0571L37.8455 16.0479L38.3209 15.644L39.0893 15.2978L39.7401 15.127L40.2732 15.2009L39.2093 15.5332ZM60.3384 24.7949L58.67 24.6957L57.883 24.9012L57.5392 25.365L57.2438 25.5727L56.9969 25.5243L56.4961 25.7066L55.7415 26.1174L55.0631 26.2721L54.4561 26.1728L54.2808 26.2721L54.2323 26.4082L54.14 26.5398L53.9046 26.609L53.6346 26.5721L53.3323 26.4267L53.1731 26.489L53.1546 26.7567L52.9908 26.8283L52.6815 26.7013L52.3331 26.7983L51.9454 27.1191L51.4008 27.186L50.6993 27.0013L50.157 26.6528L49.7716 26.1405L49.31 26.0112L48.5024 26.3921L48.1654 26.8375L48.0916 27.1098L48.17 27.3568L48.0223 27.5206L47.6462 27.6037L47.36 27.9061L47.1662 28.4276L47.127 28.8315L47.2446 29.1154L47.0577 29.3231L46.5662 29.457L45.987 29.907L45.3178 30.6732L44.6531 31.2064L43.9908 31.5087L43.6724 31.8457L43.6954 32.2149L43.6539 32.3304L43.527 32.3742L43.3124 32.425L42.0362 31.6218L41.6693 31.061L41.3532 31.1464L40.9516 31.4303L40.3862 32.0603L39.7816 32.9189L39.4886 33.0158L37.977 32.8866L37.1786 32.9627L37.0147 33.0758L36.9409 33.3897L36.987 33.8098L37.2063 35.3191L37.3286 35.94L37.2086 36.1316L36.8024 36.1616L36.2739 36.2493L35.9855 36.5331L35.9163 36.8262L35.8886 37.2347L35.7224 37.6571L35.3971 37.9594L35.074 38.0679L33.2717 38.1487L33.304 37.4517L32.7848 37.1678L32.4894 36.5862L32.2309 36.1938L32.3163 35.9584L32.2909 35.6792L31.5571 35.4622L30.8717 35.6307L30.4771 35.5199L30.1863 35.3722L30.6871 35.0284L30.7217 34.8183L30.5601 34.6683L30.3963 34.5668L30.4447 34.1767L30.5463 33.7152L30.8278 32.6373L30.724 32.4481L30.2648 32.1227L29.6832 32.0903L29.0417 32.1919L28.7325 32.0257L28.4625 31.6542L28.0056 31.4765L27.1956 31.7719L26.3371 32.2173L26.074 32.3788L25.8571 32.3581L25.7602 32.0234L25.7163 31.6287L25.6633 31.5318L25.2063 31.391L24.6733 31.2895L24.401 31.181L24.1448 30.9133L23.5056 30.5648L23.3602 30.3063L22.5063 29.7155L22.3333 29.4224L22.1371 29.2078L21.7263 28.9354L21.4056 29L20.3233 28.6608L20.1594 28.6308L20.3094 28.3331L20.651 27.8738L21.394 27.3614L21.4564 26.946L21.2625 26.152L21.0664 25.6374L21.1725 25.4066L21.4056 24.4788L21.5856 24.2642L22.6609 23.7933L22.7602 23.7287L23.6094 23.071L24.5509 22.3416L25.5294 21.5362L26.6233 20.6338L27.2256 20.1053L27.5048 19.8768L28.1348 20.0637L28.6309 19.6367L28.9171 19.4936L29.5886 18.9835L29.7963 18.8728L30.9178 18.6628L31.4601 18.6674L31.9355 19.1867L32.3117 19.4705L33.0201 19.2282L33.6132 19.1751L36.0663 19.6575L37.0401 19.4452L38.8286 19.399L39.6339 19.519L40.7693 18.8382L41.4985 18.6997L42.3547 18.3812L42.2416 18.0535L42.0362 17.9058L43.3424 18.0488L45.2878 18.7413L47.36 18.6166L48.1077 18.2427L48.59 18.1366L50.7131 18.8474L51.2716 19.3944L51.7077 19.4475L52.0469 19.3228L52.1392 19.2098L51.7215 19.0898L51.53 18.919L53.2031 19.2559L56.3507 21.8339L56.4154 22.0439L55.07 21.2823L54.3592 21.34L54.1723 21.4623L54.2138 21.8777L54.2785 22.0716L54.5831 22.0947L54.8092 21.9816L55.3654 22.1177L55.7346 22.3947L56.18 22.8194L56.4477 23.2787L56.7361 23.2856L57.02 23.0086L57.5554 22.974L57.9015 23.2832L58.1484 23.2648L57.8046 22.7847L56.9946 22.307L57.1861 22.2862L58.9815 23.1424L59.4892 24.218L59.9115 24.4603L60.3384 24.7949Z" stroke="#998989" mask="url(#path-4-outside-3_17_262)"/>
</g>
<g id="NI">
<mask id="path-5-outside-4_17_262" maskUnits="userSpaceOnUse" x="30.1116" y="23.6958" width="32" height="30" fill="black">
<rect fill="white" x="30.1116" y="23.6958" width="32" height="30"/>
<path d="M60.3383 24.795L60.1583 25.0397L59.9599 25.2012L59.5468 25.9975L59.4037 26.069L59.3737 25.4805L59.1268 25.402L58.8383 25.6121L58.6791 25.9144L58.9307 26.3067L59.1522 26.3137L59.4199 26.4222L60.1422 29.1409L59.9876 29.6256L59.5399 30.3803L59.1153 31.0196L58.6883 31.4211L58.1599 33.129L57.6845 35.9009L58.026 38.3865L57.8529 40.6829L58.0053 41.223L58.0491 41.8969L57.6983 42.0192L57.4999 41.9984L57.2968 41.5853L57.3199 41.2206L57.5299 40.7937L57.6153 40.2144L57.516 39.9121L57.3083 40.5721L56.9437 40.8676L56.706 40.9714L56.4753 41.3037L56.7199 41.9315L57.0361 42.3907L57.1422 42.7185L57.0245 43.1108L56.953 44.4495L56.8399 44.4125L56.7245 44.2325L56.3899 44.2187L56.3506 44.7587L56.376 45.0587L56.0922 45.2918L55.9907 45.5227L56.2237 45.6888L56.4799 45.7857L56.796 45.7627L57.0545 46.425L57.1376 46.9628L56.533 47.459L56.3299 47.8698L55.9883 48.3683L55.7945 48.8576L55.7368 49.2084L55.9722 50.3208L56.3853 51.1101L56.7337 51.611L57.1999 51.7195L57.0914 52.2457L56.7407 52.5803L56.1037 52.8595L55.4045 52.9103L54.2599 52.6472L53.7914 52.6172L53.6091 52.4765L53.5538 52.218L53.2261 51.8279L52.6261 51.3086L52.2799 51.3455L51.7145 51.2325L50.7753 50.8793L50.3415 50.8355L49.7184 51.1378L48.9938 51.5348L47.2469 50.9162L46.0192 50.4801L44.9161 50.0854L44.623 49.9354L44.3807 49.9677L44.1707 50.1731L43.933 50.5378L43.8546 50.644L43.7277 50.7432L43.5846 50.7709L43.58 50.5977L43.04 49.8731L42.1815 49.003L38.8931 46.3304L37.6839 44.731L37.0354 43.5793L36.4192 42.9793L34.6423 41.7515L34.2316 41.2622L32.4731 39.6189L31.1301 38.6542L31.1116 38.2434L31.6631 37.731L31.9331 37.7564L32.2285 38.1211L32.7039 38.5388L32.9277 38.5411L33.26 38.3473L33.267 38.1534L35.0692 38.0749L35.3923 37.9664L35.7177 37.6641L35.8862 37.2394L35.9139 36.8332L35.9831 36.5402L36.2716 36.2563L36.8 36.1686L37.2062 36.1386L37.3262 35.947L37.2038 35.3262L36.9846 33.8168L36.9385 33.3944L37.0123 33.0805L37.1785 32.9675L37.9769 32.8913L39.4885 33.0183L39.7815 32.9236L40.3861 32.065L40.9492 31.435L41.3507 31.1511L41.6692 31.0657L42.0338 31.6266L43.31 32.4297L43.5269 32.3789L43.6515 32.3351L43.693 32.2197L43.67 31.8504L43.9884 31.5135L44.6507 31.2111L45.3153 30.678L45.9846 29.9118L46.5661 29.4617L47.0553 29.3279L47.2445 29.1201L47.1269 28.8363L47.1661 28.4324L47.3599 27.9108L47.6461 27.6084L48.0199 27.5254L48.1699 27.3615L48.0915 27.1145L48.163 26.8445L48.5023 26.3991L49.3099 26.0182L49.7715 26.1452L50.1545 26.6576L50.6992 27.0061L51.4007 27.1907L51.9453 27.1238L52.333 26.8029L52.6814 26.706L52.9907 26.8329L53.1545 26.7591L53.173 26.4914L53.3322 26.4291L53.6368 26.5744L53.9045 26.6114L54.1399 26.5422L54.2322 26.4106L54.2807 26.2745L54.456 26.1752L55.063 26.2745L55.7414 26.1198L56.496 25.7067L56.9968 25.5267L57.2437 25.5728L57.5391 25.3651L57.8829 24.9035L58.6699 24.6958L60.3383 24.795Z"/>
</mask>
<path d="M60.3383 24.795L60.1583 25.0397L59.9599 25.2012L59.5468 25.9975L59.4037 26.069L59.3737 25.4805L59.1268 25.402L58.8383 25.6121L58.6791 25.9144L58.9307 26.3067L59.1522 26.3137L59.4199 26.4222L60.1422 29.1409L59.9876 29.6256L59.5399 30.3803L59.1153 31.0196L58.6883 31.4211L58.1599 33.129L57.6845 35.9009L58.026 38.3865L57.8529 40.6829L58.0053 41.223L58.0491 41.8969L57.6983 42.0192L57.4999 41.9984L57.2968 41.5853L57.3199 41.2206L57.5299 40.7937L57.6153 40.2144L57.516 39.9121L57.3083 40.5721L56.9437 40.8676L56.706 40.9714L56.4753 41.3037L56.7199 41.9315L57.0361 42.3907L57.1422 42.7185L57.0245 43.1108L56.953 44.4495L56.8399 44.4125L56.7245 44.2325L56.3899 44.2187L56.3506 44.7587L56.376 45.0587L56.0922 45.2918L55.9907 45.5227L56.2237 45.6888L56.4799 45.7857L56.796 45.7627L57.0545 46.425L57.1376 46.9628L56.533 47.459L56.3299 47.8698L55.9883 48.3683L55.7945 48.8576L55.7368 49.2084L55.9722 50.3208L56.3853 51.1101L56.7337 51.611L57.1999 51.7195L57.0914 52.2457L56.7407 52.5803L56.1037 52.8595L55.4045 52.9103L54.2599 52.6472L53.7914 52.6172L53.6091 52.4765L53.5538 52.218L53.2261 51.8279L52.6261 51.3086L52.2799 51.3455L51.7145 51.2325L50.7753 50.8793L50.3415 50.8355L49.7184 51.1378L48.9938 51.5348L47.2469 50.9162L46.0192 50.4801L44.9161 50.0854L44.623 49.9354L44.3807 49.9677L44.1707 50.1731L43.933 50.5378L43.8546 50.644L43.7277 50.7432L43.5846 50.7709L43.58 50.5977L43.04 49.8731L42.1815 49.003L38.8931 46.3304L37.6839 44.731L37.0354 43.5793L36.4192 42.9793L34.6423 41.7515L34.2316 41.2622L32.4731 39.6189L31.1301 38.6542L31.1116 38.2434L31.6631 37.731L31.9331 37.7564L32.2285 38.1211L32.7039 38.5388L32.9277 38.5411L33.26 38.3473L33.267 38.1534L35.0692 38.0749L35.3923 37.9664L35.7177 37.6641L35.8862 37.2394L35.9139 36.8332L35.9831 36.5402L36.2716 36.2563L36.8 36.1686L37.2062 36.1386L37.3262 35.947L37.2038 35.3262L36.9846 33.8168L36.9385 33.3944L37.0123 33.0805L37.1785 32.9675L37.9769 32.8913L39.4885 33.0183L39.7815 32.9236L40.3861 32.065L40.9492 31.435L41.3507 31.1511L41.6692 31.0657L42.0338 31.6266L43.31 32.4297L43.5269 32.3789L43.6515 32.3351L43.693 32.2197L43.67 31.8504L43.9884 31.5135L44.6507 31.2111L45.3153 30.678L45.9846 29.9118L46.5661 29.4617L47.0553 29.3279L47.2445 29.1201L47.1269 28.8363L47.1661 28.4324L47.3599 27.9108L47.6461 27.6084L48.0199 27.5254L48.1699 27.3615L48.0915 27.1145L48.163 26.8445L48.5023 26.3991L49.3099 26.0182L49.7715 26.1452L50.1545 26.6576L50.6992 27.0061L51.4007 27.1907L51.9453 27.1238L52.333 26.8029L52.6814 26.706L52.9907 26.8329L53.1545 26.7591L53.173 26.4914L53.3322 26.4291L53.6368 26.5744L53.9045 26.6114L54.1399 26.5422L54.2322 26.4106L54.2807 26.2745L54.456 26.1752L55.063 26.2745L55.7414 26.1198L56.496 25.7067L56.9968 25.5267L57.2437 25.5728L57.5391 25.3651L57.8829 24.9035L58.6699 24.6958L60.3383 24.795Z" fill="#FBF5C4"/>
<path d="M60.3383 24.795L60.1583 25.0397L59.9599 25.2012L59.5468 25.9975L59.4037 26.069L59.3737 25.4805L59.1268 25.402L58.8383 25.6121L58.6791 25.9144L58.9307 26.3067L59.1522 26.3137L59.4199 26.4222L60.1422 29.1409L59.9876 29.6256L59.5399 30.3803L59.1153 31.0196L58.6883 31.4211L58.1599 33.129L57.6845 35.9009L58.026 38.3865L57.8529 40.6829L58.0053 41.223L58.0491 41.8969L57.6983 42.0192L57.4999 41.9984L57.2968 41.5853L57.3199 41.2206L57.5299 40.7937L57.6153 40.2144L57.516 39.9121L57.3083 40.5721L56.9437 40.8676L56.706 40.9714L56.4753 41.3037L56.7199 41.9315L57.0361 42.3907L57.1422 42.7185L57.0245 43.1108L56.953 44.4495L56.8399 44.4125L56.7245 44.2325L56.3899 44.2187L56.3506 44.7587L56.376 45.0587L56.0922 45.2918L55.9907 45.5227L56.2237 45.6888L56.4799 45.7857L56.796 45.7627L57.0545 46.425L57.1376 46.9628L56.533 47.459L56.3299 47.8698L55.9883 48.3683L55.7945 48.8576L55.7368 49.2084L55.9722 50.3208L56.3853 51.1101L56.7337 51.611L57.1999 51.7195L57.0914 52.2457L56.7407 52.5803L56.1037 52.8595L55.4045 52.9103L54.2599 52.6472L53.7914 52.6172L53.6091 52.4765L53.5538 52.218L53.2261 51.8279L52.6261 51.3086L52.2799 51.3455L51.7145 51.2325L50.7753 50.8793L50.3415 50.8355L49.7184 51.1378L48.9938 51.5348L47.2469 50.9162L46.0192 50.4801L44.9161 50.0854L44.623 49.9354L44.3807 49.9677L44.1707 50.1731L43.933 50.5378L43.8546 50.644L43.7277 50.7432L43.5846 50.7709L43.58 50.5977L43.04 49.8731L42.1815 49.003L38.8931 46.3304L37.6839 44.731L37.0354 43.5793L36.4192 42.9793L34.6423 41.7515L34.2316 41.2622L32.4731 39.6189L31.1301 38.6542L31.1116 38.2434L31.6631 37.731L31.9331 37.7564L32.2285 38.1211L32.7039 38.5388L32.9277 38.5411L33.26 38.3473L33.267 38.1534L35.0692 38.0749L35.3923 37.9664L35.7177 37.6641L35.8862 37.2394L35.9139 36.8332L35.9831 36.5402L36.2716 36.2563L36.8 36.1686L37.2062 36.1386L37.3262 35.947L37.2038 35.3262L36.9846 33.8168L36.9385 33.3944L37.0123 33.0805L37.1785 32.9675L37.9769 32.8913L39.4885 33.0183L39.7815 32.9236L40.3861 32.065L40.9492 31.435L41.3507 31.1511L41.6692 31.0657L42.0338 31.6266L43.31 32.4297L43.5269 32.3789L43.6515 32.3351L43.693 32.2197L43.67 31.8504L43.9884 31.5135L44.6507 31.2111L45.3153 30.678L45.9846 29.9118L46.5661 29.4617L47.0553 29.3279L47.2445 29.1201L47.1269 28.8363L47.1661 28.4324L47.3599 27.9108L47.6461 27.6084L48.0199 27.5254L48.1699 27.3615L48.0915 27.1145L48.163 26.8445L48.5023 26.3991L49.3099 26.0182L49.7715 26.1452L50.1545 26.6576L50.6992 27.0061L51.4007 27.1907L51.9453 27.1238L52.333 26.8029L52.6814 26.706L52.9907 26.8329L53.1545 26.7591L53.173 26.4914L53.3322 26.4291L53.6368 26.5744L53.9045 26.6114L54.1399 26.5422L54.2322 26.4106L54.2807 26.2745L54.456 26.1752L55.063 26.2745L55.7414 26.1198L56.496 25.7067L56.9968 25.5267L57.2437 25.5728L57.5391 25.3651L57.8829 24.9035L58.6699 24.6958L60.3383 24.795Z" stroke="#998989" mask="url(#path-5-outside-4_17_262)"/>
</g>
<g id="PA">
<mask id="path-6-outside-5_17_262" maskUnits="userSpaceOnUse" x="60.1899" y="59.3625" width="40" height="18" fill="black">
<rect fill="white" x="60.1899" y="59.3625" width="40" height="18"/>
<path d="M97.7944 66.4717L97.672 66.5617L97.3144 67.074L97.1205 67.5125L97.582 67.9765L97.7205 68.468L97.9813 69.0012L98.3874 69.5366L98.8443 70.5313L98.9482 70.9306L98.819 71.1891L98.3851 71.3483L97.979 71.8122L97.8682 72.38L97.9466 72.6616L96.7328 73.5685L96.419 73.7185L96.2113 73.5801L95.9528 73.1254L95.6436 72.7585L95.4775 72.6292L95.3805 72.6246L95.2836 72.71L95.2375 72.9085L95.399 73.7601L95.2651 74.104L94.8521 74.3694L94.379 75.7542L94.1944 75.5787L92.6367 73.714L91.289 71.4037L91.0075 70.3559L91.3559 70.2936L91.6928 70.3166L91.8752 70.1551L92.0851 69.8505L91.9144 69.1419L92.5698 68.6042L92.8167 68.2418L92.999 68.2834L93.4282 68.9019L94.0513 69.255L94.8151 69.7697L95.2882 69.8874L94.6905 69.3474L93.6567 68.6365L93.3682 68.1703L93.0959 67.5217L92.6921 67.8033L92.5052 68.041L92.2951 68.1749L92.1129 68.0134L92.0805 67.8033L91.4713 67.7618L91.3144 67.5702L91.1529 67.4641L91.2267 67.8702L91.3467 68.1195L91.2821 68.4219L91.0836 68.4426L90.9152 68.1311L90.6982 67.8472L90.4098 66.6655L89.7175 66.1093L89.399 65.9224L89.1383 65.8531L88.7529 65.4746L88.2452 65.2738L87.5529 64.6853L86.7036 64.263L85.6652 64.1153L84.4029 64.2075L83.9783 64.443L83.6898 64.7407L83.556 64.8792L82.8106 65.2185L82.5291 65.71L82.3514 66.1255L81.9798 66.5963L82.4044 66.8802L79.9744 68.4796L79.4945 68.7127L78.4029 68.8765L78.1514 69.0473L77.8191 69.3635L77.7729 69.8436L77.8237 70.2521L78.1398 70.5682L78.4237 70.7667L79.0998 71.7176L80.3022 72.9177L80.5306 73.3539L80.7175 74.0025L80.3552 74.3071L80.0737 74.4363L78.9291 74.4871L78.5345 74.7456L78.3752 75.1402L77.9483 75.4634L76.4737 75.7842L75.3152 75.8211L74.9553 75.4518L74.8676 74.411L74.0876 72.6338L73.9007 71.4084L73.7068 71.5606L73.2937 71.7037L73.153 72.0084L73.0491 72.9108L72.8968 73.22L72.5784 73.19L71.923 72.8669L71.0507 72.5692L69.9407 70.6559L69.8207 70.2959L69.6038 69.8643L68.7453 69.682L68.0137 69.3589L67.2153 69.3104L66.8068 69.4927L66.3892 69.2619L66.3176 68.7357L65.4799 68.9712L64.4045 68.8881L63.4423 68.6642L62.7846 68.7842L62.233 69.1581L62.3092 70.1113L62.1476 70.3005L62.1223 69.9105L61.9307 69.4627L61.7 69.0911L61.2153 68.7057L61.1899 68.5649L61.3815 68.3711L62.2607 67.8126L62.3692 67.5794L62.383 67.0948L62.2977 66.6309L61.9007 65.9477L62.1269 65.5254L62.5815 65.1861L63.0476 64.9184L63.1261 64.8053L63.0407 64.5722L62.7684 64.3207L62.1315 63.8937L61.7484 63.866L61.7322 62.6358L61.7507 61.3296L61.8476 61.2003L62.0807 61.1219L62.2677 60.9234L62.3715 60.5356L62.6507 60.3971L63.1538 60.6948L63.6684 60.958L63.8807 60.8703L64.0399 60.7411L64.153 60.6141L64.1899 60.4941L64.6007 60.8426L65.4384 61.4611L65.4868 61.7635L65.4084 62.0543L65.6392 62.8897L66.073 63.0098L66.5114 62.8482L66.6199 63.0028L66.5392 63.1575L66.313 63.3306L66.2576 64.0483L66.9753 64.383L67.3353 64.6761L68.5261 64.5376L68.9645 64.616L69.2645 64.5307L68.9322 63.9537L68.4868 63.5267L68.5238 63.3352L68.8607 63.4783L69.1191 63.769L69.7053 64.1291L70.783 65.38L72.0199 65.6823L72.9983 65.6431L73.9099 65.4746L75.3614 64.99L76.4137 64.1129L77.2514 63.7229L79.9698 62.8897L80.9344 62.0174L81.3429 61.9042L81.7306 61.7958L82.5845 61.1357L83.0437 60.621L83.5283 60.3625L84.966 60.5495L85.8983 60.7918L86.5421 60.7595L87.1606 60.9326L87.4306 61.3065L87.7121 61.4657L89.2329 61.4242L90.479 61.6089L93.209 62.7166L94.8428 63.8129L95.7082 64.9761L97.7944 66.4717ZM66.3223 61.7635L66.2507 62.0681L65.7499 61.5211L66.0476 61.4311L66.1538 61.4426L66.3223 61.7635ZM87.9221 68.9689L87.7929 69.2435L87.4906 68.6296L87.539 68.4727L87.5183 67.9187L87.8067 67.7733L88.019 67.7618L88.1944 67.8402L88.3052 68.4934L88.2129 68.7888L87.9221 68.9689ZM86.8398 69.1004L86.5491 69.3889L86.4383 69.1165L86.6413 68.8326L86.7129 68.8304L86.8398 69.1004ZM70.4045 75.0849L70.0491 75.1194L69.3245 74.8403L68.7938 74.3025L68.7499 74.1294L68.7614 73.9494L69.0499 73.4L69.4376 73.2108L69.5899 73.2131L69.9615 73.8478L69.7099 74.0925L69.8114 74.4848L70.3376 74.7756L70.4045 75.0849Z"/>
</mask>
<path d="M97.7944 66.4717L97.672 66.5617L97.3144 67.074L97.1205 67.5125L97.582 67.9765L97.7205 68.468L97.9813 69.0012L98.3874 69.5366L98.8443 70.5313L98.9482 70.9306L98.819 71.1891L98.3851 71.3483L97.979 71.8122L97.8682 72.38L97.9466 72.6616L96.7328 73.5685L96.419 73.7185L96.2113 73.5801L95.9528 73.1254L95.6436 72.7585L95.4775 72.6292L95.3805 72.6246L95.2836 72.71L95.2375 72.9085L95.399 73.7601L95.2651 74.104L94.8521 74.3694L94.379 75.7542L94.1944 75.5787L92.6367 73.714L91.289 71.4037L91.0075 70.3559L91.3559 70.2936L91.6928 70.3166L91.8752 70.1551L92.0851 69.8505L91.9144 69.1419L92.5698 68.6042L92.8167 68.2418L92.999 68.2834L93.4282 68.9019L94.0513 69.255L94.8151 69.7697L95.2882 69.8874L94.6905 69.3474L93.6567 68.6365L93.3682 68.1703L93.0959 67.5217L92.6921 67.8033L92.5052 68.041L92.2951 68.1749L92.1129 68.0134L92.0805 67.8033L91.4713 67.7618L91.3144 67.5702L91.1529 67.4641L91.2267 67.8702L91.3467 68.1195L91.2821 68.4219L91.0836 68.4426L90.9152 68.1311L90.6982 67.8472L90.4098 66.6655L89.7175 66.1093L89.399 65.9224L89.1383 65.8531L88.7529 65.4746L88.2452 65.2738L87.5529 64.6853L86.7036 64.263L85.6652 64.1153L84.4029 64.2075L83.9783 64.443L83.6898 64.7407L83.556 64.8792L82.8106 65.2185L82.5291 65.71L82.3514 66.1255L81.9798 66.5963L82.4044 66.8802L79.9744 68.4796L79.4945 68.7127L78.4029 68.8765L78.1514 69.0473L77.8191 69.3635L77.7729 69.8436L77.8237 70.2521L78.1398 70.5682L78.4237 70.7667L79.0998 71.7176L80.3022 72.9177L80.5306 73.3539L80.7175 74.0025L80.3552 74.3071L80.0737 74.4363L78.9291 74.4871L78.5345 74.7456L78.3752 75.1402L77.9483 75.4634L76.4737 75.7842L75.3152 75.8211L74.9553 75.4518L74.8676 74.411L74.0876 72.6338L73.9007 71.4084L73.7068 71.5606L73.2937 71.7037L73.153 72.0084L73.0491 72.9108L72.8968 73.22L72.5784 73.19L71.923 72.8669L71.0507 72.5692L69.9407 70.6559L69.8207 70.2959L69.6038 69.8643L68.7453 69.682L68.0137 69.3589L67.2153 69.3104L66.8068 69.4927L66.3892 69.2619L66.3176 68.7357L65.4799 68.9712L64.4045 68.8881L63.4423 68.6642L62.7846 68.7842L62.233 69.1581L62.3092 70.1113L62.1476 70.3005L62.1223 69.9105L61.9307 69.4627L61.7 69.0911L61.2153 68.7057L61.1899 68.5649L61.3815 68.3711L62.2607 67.8126L62.3692 67.5794L62.383 67.0948L62.2977 66.6309L61.9007 65.9477L62.1269 65.5254L62.5815 65.1861L63.0476 64.9184L63.1261 64.8053L63.0407 64.5722L62.7684 64.3207L62.1315 63.8937L61.7484 63.866L61.7322 62.6358L61.7507 61.3296L61.8476 61.2003L62.0807 61.1219L62.2677 60.9234L62.3715 60.5356L62.6507 60.3971L63.1538 60.6948L63.6684 60.958L63.8807 60.8703L64.0399 60.7411L64.153 60.6141L64.1899 60.4941L64.6007 60.8426L65.4384 61.4611L65.4868 61.7635L65.4084 62.0543L65.6392 62.8897L66.073 63.0098L66.5114 62.8482L66.6199 63.0028L66.5392 63.1575L66.313 63.3306L66.2576 64.0483L66.9753 64.383L67.3353 64.6761L68.5261 64.5376L68.9645 64.616L69.2645 64.5307L68.9322 63.9537L68.4868 63.5267L68.5238 63.3352L68.8607 63.4783L69.1191 63.769L69.7053 64.1291L70.783 65.38L72.0199 65.6823L72.9983 65.6431L73.9099 65.4746L75.3614 64.99L76.4137 64.1129L77.2514 63.7229L79.9698 62.8897L80.9344 62.0174L81.3429 61.9042L81.7306 61.7958L82.5845 61.1357L83.0437 60.621L83.5283 60.3625L84.966 60.5495L85.8983 60.7918L86.5421 60.7595L87.1606 60.9326L87.4306 61.3065L87.7121 61.4657L89.2329 61.4242L90.479 61.6089L93.209 62.7166L94.8428 63.8129L95.7082 64.9761L97.7944 66.4717ZM66.3223 61.7635L66.2507 62.0681L65.7499 61.5211L66.0476 61.4311L66.1538 61.4426L66.3223 61.7635ZM87.9221 68.9689L87.7929 69.2435L87.4906 68.6296L87.539 68.4727L87.5183 67.9187L87.8067 67.7733L88.019 67.7618L88.1944 67.8402L88.3052 68.4934L88.2129 68.7888L87.9221 68.9689ZM86.8398 69.1004L86.5491 69.3889L86.4383 69.1165L86.6413 68.8326L86.7129 68.8304L86.8398 69.1004ZM70.4045 75.0849L70.0491 75.1194L69.3245 74.8403L68.7938 74.3025L68.7499 74.1294L68.7614 73.9494L69.0499 73.4L69.4376 73.2108L69.5899 73.2131L69.9615 73.8478L69.7099 74.0925L69.8114 74.4848L70.3376 74.7756L70.4045 75.0849Z" fill="#FBF5C4"/>
<path d="M97.7944 66.4717L97.672 66.5617L97.3144 67.074L97.1205 67.5125L97.582 67.9765L97.7205 68.468L97.9813 69.0012L98.3874 69.5366L98.8443 70.5313L98.9482 70.9306L98.819 71.1891L98.3851 71.3483L97.979 71.8122L97.8682 72.38L97.9466 72.6616L96.7328 73.5685L96.419 73.7185L96.2113 73.5801L95.9528 73.1254L95.6436 72.7585L95.4775 72.6292L95.3805 72.6246L95.2836 72.71L95.2375 72.9085L95.399 73.7601L95.2651 74.104L94.8521 74.3694L94.379 75.7542L94.1944 75.5787L92.6367 73.714L91.289 71.4037L91.0075 70.3559L91.3559 70.2936L91.6928 70.3166L91.8752 70.1551L92.0851 69.8505L91.9144 69.1419L92.5698 68.6042L92.8167 68.2418L92.999 68.2834L93.4282 68.9019L94.0513 69.255L94.8151 69.7697L95.2882 69.8874L94.6905 69.3474L93.6567 68.6365L93.3682 68.1703L93.0959 67.5217L92.6921 67.8033L92.5052 68.041L92.2951 68.1749L92.1129 68.0134L92.0805 67.8033L91.4713 67.7618L91.3144 67.5702L91.1529 67.4641L91.2267 67.8702L91.3467 68.1195L91.2821 68.4219L91.0836 68.4426L90.9152 68.1311L90.6982 67.8472L90.4098 66.6655L89.7175 66.1093L89.399 65.9224L89.1383 65.8531L88.7529 65.4746L88.2452 65.2738L87.5529 64.6853L86.7036 64.263L85.6652 64.1153L84.4029 64.2075L83.9783 64.443L83.6898 64.7407L83.556 64.8792L82.8106 65.2185L82.5291 65.71L82.3514 66.1255L81.9798 66.5963L82.4044 66.8802L79.9744 68.4796L79.4945 68.7127L78.4029 68.8765L78.1514 69.0473L77.8191 69.3635L77.7729 69.8436L77.8237 70.2521L78.1398 70.5682L78.4237 70.7667L79.0998 71.7176L80.3022 72.9177L80.5306 73.3539L80.7175 74.0025L80.3552 74.3071L80.0737 74.4363L78.9291 74.4871L78.5345 74.7456L78.3752 75.1402L77.9483 75.4634L76.4737 75.7842L75.3152 75.8211L74.9553 75.4518L74.8676 74.411L74.0876 72.6338L73.9007 71.4084L73.7068 71.5606L73.2937 71.7037L73.153 72.0084L73.0491 72.9108L72.8968 73.22L72.5784 73.19L71.923 72.8669L71.0507 72.5692L69.9407 70.6559L69.8207 70.2959L69.6038 69.8643L68.7453 69.682L68.0137 69.3589L67.2153 69.3104L66.8068 69.4927L66.3892 69.2619L66.3176 68.7357L65.4799 68.9712L64.4045 68.8881L63.4423 68.6642L62.7846 68.7842L62.233 69.1581L62.3092 70.1113L62.1476 70.3005L62.1223 69.9105L61.9307 69.4627L61.7 69.0911L61.2153 68.7057L61.1899 68.5649L61.3815 68.3711L62.2607 67.8126L62.3692 67.5794L62.383 67.0948L62.2977 66.6309L61.9007 65.9477L62.1269 65.5254L62.5815 65.1861L63.0476 64.9184L63.1261 64.8053L63.0407 64.5722L62.7684 64.3207L62.1315 63.8937L61.7484 63.866L61.7322 62.6358L61.7507 61.3296L61.8476 61.2003L62.0807 61.1219L62.2677 60.9234L62.3715 60.5356L62.6507 60.3971L63.1538 60.6948L63.6684 60.958L63.8807 60.8703L64.0399 60.7411L64.153 60.6141L64.1899 60.4941L64.6007 60.8426L65.4384 61.4611L65.4868 61.7635L65.4084 62.0543L65.6392 62.8897L66.073 63.0098L66.5114 62.8482L66.6199 63.0028L66.5392 63.1575L66.313 63.3306L66.2576 64.0483L66.9753 64.383L67.3353 64.6761L68.5261 64.5376L68.9645 64.616L69.2645 64.5307L68.9322 63.9537L68.4868 63.5267L68.5238 63.3352L68.8607 63.4783L69.1191 63.769L69.7053 64.1291L70.783 65.38L72.0199 65.6823L72.9983 65.6431L73.9099 65.4746L75.3614 64.99L76.4137 64.1129L77.2514 63.7229L79.9698 62.8897L80.9344 62.0174L81.3429 61.9042L81.7306 61.7958L82.5845 61.1357L83.0437 60.621L83.5283 60.3625L84.966 60.5495L85.8983 60.7918L86.5421 60.7595L87.1606 60.9326L87.4306 61.3065L87.7121 61.4657L89.2329 61.4242L90.479 61.6089L93.209 62.7166L94.8428 63.8129L95.7082 64.9761L97.7944 66.4717ZM66.3223 61.7635L66.2507 62.0681L65.7499 61.5211L66.0476 61.4311L66.1538 61.4426L66.3223 61.7635ZM87.9221 68.9689L87.7929 69.2435L87.4906 68.6296L87.539 68.4727L87.5183 67.9187L87.8067 67.7733L88.019 67.7618L88.1944 67.8402L88.3052 68.4934L88.2129 68.7888L87.9221 68.9689ZM86.8398 69.1004L86.5491 69.3889L86.4383 69.1165L86.6413 68.8326L86.7129 68.8304L86.8398 69.1004ZM70.4045 75.0849L70.0491 75.1194L69.3245 74.8403L68.7938 74.3025L68.7499 74.1294L68.7614 73.9494L69.0499 73.4L69.4376 73.2108L69.5899 73.2131L69.9615 73.8478L69.7099 74.0925L69.8114 74.4848L70.3376 74.7756L70.4045 75.0849Z" stroke="#998989" mask="url(#path-6-outside-5_17_262)"/>
</g>
<path id="SV" d="M25.9517 36.9384L26.1689 36.834L26.1828 36.8394L26.2022 36.8471L26.2225 36.8515L27.7548 37.1792L27.7846 37.1856L27.8151 37.1846L28.8327 37.1523L28.845 37.1519L28.8572 37.1503L29.4572 37.0718L29.53 37.0623L29.5861 37.0149L29.9277 36.7264L29.9397 36.7163L29.9503 36.7047L30.3219 36.3008L30.4053 36.2102L30.3842 36.0888L30.2991 35.5987L30.3014 35.5974L30.3118 35.5916L30.3216 35.5848L30.8223 35.2386L30.9096 35.1783L30.9269 35.0736L30.9615 34.8636L30.9833 34.7311L30.8849 34.6398L30.7234 34.4898L30.7065 34.4741L30.6871 34.4617L30.657 34.4427L30.6845 34.2215L30.7825 33.7783L31.0629 32.7027L31.0885 32.6045L31.0384 32.5162L30.9322 32.3293L30.9049 32.2811L30.8598 32.249L30.4029 31.9236L30.344 31.8817L30.2718 31.8777L29.6902 31.8453L29.6636 31.8439L29.6373 31.848L29.0789 31.9364L28.8942 31.8372L28.6578 31.5118L28.6146 31.4524L28.5462 31.4258L28.0893 31.2481L28.0012 31.2138L27.9124 31.2464L27.1024 31.5441L27.0876 31.5496L27.0735 31.5569L26.2151 32.0023L26.2071 32.0064L26.1994 32.0112L26.0366 32.1111L25.9994 31.9836L25.9579 31.6083L25.9525 31.5591L25.9287 31.5157L25.8757 31.4187L25.827 31.3297L25.73 31.2998L25.2731 31.159L25.2603 31.1551L25.2472 31.1526L24.7371 31.0532L24.5366 30.9733L24.3155 30.7443L24.2889 30.7168L24.2553 30.6985L23.6799 30.3848L23.572 30.1899L23.5436 30.1385L23.4952 30.1051L22.6871 29.5481L22.5421 29.3007L22.5288 29.2779L22.511 29.2584L22.3148 29.0437L22.294 29.021L22.2684 29.004L21.8576 28.7317L21.7706 28.674L21.6684 28.6953L21.4114 28.749L20.3912 28.4291L20.3782 28.4251L20.3648 28.4224L20.2408 28.398L20.1423 28.3419L20.0963 28.3158L20.0436 28.3105L19.8128 28.2874L19.7735 28.2834L19.7348 28.2918L19.2183 28.4042L18.9743 28.4281L18.9165 28.4338L18.867 28.4644L18.6547 28.596L18.5473 28.6625L18.5372 28.7884L18.5141 29.0746L18.5103 29.1225L18.5244 29.1683L18.6642 29.6216L18.6788 29.69L18.0538 29.9563L18.0056 29.9768L17.9697 30.015L17.7113 30.2897L17.6916 30.3105L17.6772 30.3353L17.4612 30.7068L17.3007 30.8078L17.0871 30.7848L17.0376 30.7794L16.9899 30.7934L16.7775 30.8558L16.7377 30.8675L16.7038 30.8914L16.2492 31.2122L16.2368 31.221L16.2256 31.2312L15.5425 31.8496L15.5273 31.8634L15.5145 31.8795L15.1499 32.3388L15.098 32.4041L15.0957 32.4875L15.0865 32.8291L15.0857 32.861L15.0929 32.8922L15.1644 33.2015L15.1927 33.3238L15.3078 33.3742L16.0883 33.7154L17.1401 34.5121L17.1873 34.5479L17.2455 34.5587L19.0663 34.8957L19.0662 34.8961L19.0798 34.8978L20.6293 35.098L23.2511 36.3703L23.2707 36.3798L23.2917 36.3858L25.5925 37.0413L25.6838 37.0673L25.7693 37.0261L25.9517 36.9384Z" fill="#FBF5C4" stroke="#998989" stroke-width="0.5"/>
</g>
</svg>
